<svg id="my-svg" width="100%" xmlns="http://www.w3.org/2000/svg" xmlns:xlink="http://www.w3.org/1999/xlink" class="flowchart" style="max-width: 2675.31px; background-color: white;" viewBox="0 -0.000003814697265625 2675.3125 1219.6732177734375" role="graphics-document document" aria-roledescription="flowchart-v2"><style>#my-svg{font-family:"trebuchet ms",verdana,arial,sans-serif;font-size:16px;fill:#333;}@keyframes edge-animation-frame{from{stroke-dashoffset:0;}}@keyframes dash{to{stroke-dashoffset:0;}}#my-svg .edge-animation-slow{stroke-dasharray:9,5!important;stroke-dashoffset:900;animation:dash 50s linear infinite;stroke-linecap:round;}#my-svg .edge-animation-fast{stroke-dasharray:9,5!important;stroke-dashoffset:900;animation:dash 20s linear infinite;stroke-linecap:round;}#my-svg .error-icon{fill:#552222;}#my-svg .error-text{fill:#552222;stroke:#552222;}#my-svg .edge-thickness-normal{stroke-width:1px;}#my-svg .edge-thickness-thick{stroke-width:3.5px;}#my-svg .edge-pattern-solid{stroke-dasharray:0;}#my-svg .edge-thickness-invisible{stroke-width:0;fill:none;}#my-svg .edge-pattern-dashed{stroke-dasharray:3;}#my-svg .edge-pattern-dotted{stroke-dasharray:2;}#my-svg .marker{fill:#333333;stroke:#333333;}#my-svg .marker.cross{stroke:#333333;}#my-svg svg{font-family:"trebuchet ms",verdana,arial,sans-serif;font-size:16px;}#my-svg p{margin:0;}#my-svg .label{font-family:"trebuchet ms",verdana,arial,sans-serif;color:#333;}#my-svg .cluster-label text{fill:#333;}#my-svg .cluster-label span{color:#333;}#my-svg .cluster-label span p{background-color:transparent;}#my-svg .label text,#my-svg span{fill:#333;color:#333;}#my-svg .node rect,#my-svg .node circle,#my-svg .node ellipse,#my-svg .node polygon,#my-svg .node path{fill:#ECECFF;stroke:#9370DB;stroke-width:1px;}#my-svg .rough-node .label text,#my-svg .node .label text,#my-svg .image-shape .label,#my-svg .icon-shape .label{text-anchor:middle;}#my-svg .node .katex path{fill:#000;stroke:#000;stroke-width:1px;}#my-svg .rough-node .label,#my-svg .node .label,#my-svg .image-shape .label,#my-svg .icon-shape .label{text-align:center;}#my-svg .node.clickable{cursor:pointer;}#my-svg .root .anchor path{fill:#333333!important;stroke-width:0;stroke:#333333;}#my-svg .arrowheadPath{fill:#333333;}#my-svg .edgePaths .path{stroke:#333333;stroke-width:1px;}#my-svg .flowchart-link{stroke:#333333;fill:none;}#my-svg .edgeLabel{background-color:rgba(232,232,232, 0.8);text-align:center;}#my-svg .edgeLabel p{background-color:rgba(232,232,232, 0.8);}#my-svg .edgeLabel rect{opacity:0.5;background-color:rgba(232,232,232, 0.8);fill:rgba(232,232,232, 0.8);}#my-svg .labelBkg{background-color:rgba(232, 232, 232, 0.5);}#my-svg .cluster rect{fill:#ffffde;stroke:#aaaa33;stroke-width:1px;}#my-svg .cluster text{fill:#333;}#my-svg .cluster span{color:#333;}#my-svg .node .collapsed-indicator{fill:#aaaa33;stroke:none;opacity:0.6;}#my-svg .node .collapsed-separator{stroke:#aaaa33;stroke-width:0.75px;}#my-svg div.mermaidTooltip{position:absolute;text-align:center;max-width:200px;padding:2px;font-family:"trebuchet ms",verdana,arial,sans-serif;font-size:12px;background:hsl(80, 100%, 96.2745098039%);border:1px solid #aaaa33;border-radius:2px;pointer-events:none;z-index:100;}#my-svg .flowchartTitleText{text-anchor:middle;font-size:18px;fill:#333;}#my-svg rect.text{fill:none;stroke-width:0;}#my-svg .icon-shape,#my-svg .image-shape{background-color:rgba(232,232,232, 0.8);text-align:center;}#my-svg .icon-shape p,#my-svg .image-shape p{background-color:rgba(232,232,232, 0.8);padding:2px;}#my-svg .icon-shape .label rect,#my-svg .image-shape .label rect{opacity:0.5;background-color:rgba(232,232,232, 0.8);fill:rgba(232,232,232, 0.8);}#my-svg .label-icon{display:inline-block;height:1em;overflow:visible;vertical-align:-0.125em;}#my-svg .node .label-icon path{fill:currentColor;stroke:revert;stroke-width:revert;}#my-svg .node .neo-node{stroke:#9370DB;}#my-svg [data-look="neo"].node rect,#my-svg [data-look="neo"].cluster rect,#my-svg [data-look="neo"].node polygon{stroke:#9370DB;filter:drop-shadow(1px 2px 2px rgba(185, 185, 185, 1));}#my-svg [data-look="neo"].swimlane.cluster rect{filter:none;}#my-svg [data-look="neo"].node path{stroke:#9370DB;stroke-width:1px;}#my-svg [data-look="neo"].node .outer-path{filter:drop-shadow(1px 2px 2px rgba(185, 185, 185, 1));}#my-svg [data-look="neo"].node .neo-line path{stroke:#9370DB;filter:none;}#my-svg [data-look="neo"].node circle{stroke:#9370DB;filter:drop-shadow(1px 2px 2px rgba(185, 185, 185, 1));}#my-svg [data-look="neo"].node circle .state-start{fill:#000000;}#my-svg [data-look="neo"].icon-shape .icon{fill:#9370DB;filter:drop-shadow(1px 2px 2px rgba(185, 185, 185, 1));}#my-svg [data-look="neo"].icon-shape .icon-neo path{stroke:#9370DB;filter:drop-shadow(1px 2px 2px rgba(185, 185, 185, 1));}#my-svg :root{--mermaid-font-family:"trebuchet ms",verdana,arial,sans-serif;}</style><g><marker id="my-svg_flowchart-v2-pointEnd" class="marker flowchart-v2" viewBox="0 0 10 10" refX="5" refY="5" markerUnits="userSpaceOnUse" markerWidth="8" markerHeight="8" orient="auto"><path d="M 0 0 L 10 5 L 0 10 z" class="arrowMarkerPath" style="stroke-width: 1; stroke-dasharray: 1, 0;"/></marker><marker id="my-svg_flowchart-v2-pointStart" class="marker flowchart-v2" viewBox="0 0 10 10" refX="4.5" refY="5" markerUnits="userSpaceOnUse" markerWidth="8" markerHeight="8" orient="auto"><path d="M 0 5 L 10 10 L 10 0 z" class="arrowMarkerPath" style="stroke-width: 1; stroke-dasharray: 1, 0;"/></marker><marker id="my-svg_flowchart-v2-pointEnd-margin" class="marker flowchart-v2" viewBox="0 0 11.5 14" refX="11.5" refY="7" markerUnits="userSpaceOnUse" markerWidth="10.5" markerHeight="14" orient="auto"><path d="M 0 0 L 11.5 7 L 0 14 z" class="arrowMarkerPath" style="stroke-width: 0; stroke-dasharray: 1, 0;"/></marker><marker id="my-svg_flowchart-v2-pointStart-margin" class="marker flowchart-v2" viewBox="0 0 11.5 14" refX="1" refY="7" markerUnits="userSpaceOnUse" markerWidth="11.5" markerHeight="14" orient="auto"><polygon points="0,7 11.5,14 11.5,0" class="arrowMarkerPath" style="stroke-width: 0; stroke-dasharray: 1, 0;"/></marker><marker id="my-svg_flowchart-v2-circleEnd" class="marker flowchart-v2" viewBox="0 0 10 10" refX="11" refY="5" markerUnits="userSpaceOnUse" markerWidth="11" markerHeight="11" orient="auto"><circle cx="5" cy="5" r="5" class="arrowMarkerPath" style="stroke-width: 1; stroke-dasharray: 1, 0;"/></marker><marker id="my-svg_flowchart-v2-circleStart" class="marker flowchart-v2" viewBox="0 0 10 10" refX="-1" refY="5" markerUnits="userSpaceOnUse" markerWidth="11" markerHeight="11" orient="auto"><circle cx="5" cy="5" r="5" class="arrowMarkerPath" style="stroke-width: 1; stroke-dasharray: 1, 0;"/></marker><marker id="my-svg_flowchart-v2-circleEnd-margin" class="marker flowchart-v2" viewBox="0 0 10 10" refY="5" refX="12.25" markerUnits="userSpaceOnUse" markerWidth="14" markerHeight="14" orient="auto"><circle cx="5" cy="5" r="5" class="arrowMarkerPath" style="stroke-width: 0; stroke-dasharray: 1, 0;"/></marker><marker id="my-svg_flowchart-v2-circleStart-margin" class="marker flowchart-v2" viewBox="0 0 10 10" refX="-2" refY="5" markerUnits="userSpaceOnUse" markerWidth="14" markerHeight="14" orient="auto"><circle cx="5" cy="5" r="5" class="arrowMarkerPath" style="stroke-width: 0; stroke-dasharray: 1, 0;"/></marker><marker id="my-svg_flowchart-v2-crossEnd" class="marker cross flowchart-v2" viewBox="0 0 11 11" refX="12" refY="5.2" markerUnits="userSpaceOnUse" markerWidth="11" markerHeight="11" orient="auto"><path d="M 1,1 l 9,9 M 10,1 l -9,9" class="arrowMarkerPath" style="stroke-width: 2; stroke-dasharray: 1, 0;"/></marker><marker id="my-svg_flowchart-v2-crossStart" class="marker cross flowchart-v2" viewBox="0 0 11 11" refX="-1" refY="5.2" markerUnits="userSpaceOnUse" markerWidth="11" markerHeight="11" orient="auto"><path d="M 1,1 l 9,9 M 10,1 l -9,9" class="arrowMarkerPath" style="stroke-width: 2; stroke-dasharray: 1, 0;"/></marker><marker id="my-svg_flowchart-v2-crossEnd-margin" class="marker cross flowchart-v2" viewBox="0 0 15 15" refX="17.7" refY="7.5" markerUnits="userSpaceOnUse" markerWidth="12" markerHeight="12" orient="auto"><path d="M 1,1 L 14,14 M 1,14 L 14,1" class="arrowMarkerPath" style="stroke-width: 2.5;"/></marker><marker id="my-svg_flowchart-v2-crossStart-margin" class="marker cross flowchart-v2" viewBox="0 0 15 15" refX="-3.5" refY="7.5" markerUnits="userSpaceOnUse" markerWidth="12" markerHeight="12" orient="auto"><path d="M 1,1 L 14,14 M 1,14 L 14,1" class="arrowMarkerPath" style="stroke-width: 2.5; stroke-dasharray: 1, 0;"/></marker><g class="root"><g class="clusters"><g class="cluster" id="my-svg-worker" data-look="classic"><rect style="" x="1373.140625" y="968.6732406616211" width="776.34375" height="243"/><g class="cluster-label" transform="translate(1696.640625, 968.6732406616211)"><foreignObject width="129.34375" height="24"><div xmlns="http://www.w3.org/1999/xhtml" style="display: table-cell; white-space: nowrap; line-height: 1.5;"><span class="nodeLabel"><p>Reconciler worker</p></span></div></foreignObject></g></g><g class="cluster" id="my-svg-api" data-look="classic"><rect style="" x="402.015625" y="143.6732406616211" width="1747.46875" height="805"/><g class="cluster-label" transform="translate(1170.5390625, 143.6732406616211)"><foreignObject width="210.421875" height="24"><div xmlns="http://www.w3.org/1999/xhtml" style="display: table-cell; white-space: nowrap; line-height: 1.5;"><span class="nodeLabel"><p>API service (FastAPI, uvicorn)</p></span></div></foreignObject></g></g></g><g class="edgePaths"><path d="M127.201,207.173L152.17,207.09C177.139,207.007,227.077,206.84,272.88,206.757C318.682,206.673,360.349,206.673,394.466,217.825C428.583,228.977,455.151,251.281,468.434,262.433L481.718,273.585" id="my-svg-L_client_mw_0" class="edge-thickness-normal edge-pattern-solid edge-thickness-normal edge-pattern-solid flowchart-link" style=";" data-edge="true" data-et="edge" data-id="L_client_mw_0" data-points="W3sieCI6MTI3LjIwMDkxNzMyNjg0NjI4LCJ5IjoyMDcuMTczMjQwNjYxNjIxMDd9LHsieCI6Mjc3LjAxNTYyNSwieSI6MjA2LjY3MzI0MDY2MTYyMTF9LHsieCI6NDAyLjAxNTYyNSwieSI6MjA2LjY3MzI0MDY2MTYyMTF9LHsieCI6NDg0Ljc4MTcyOTQxMjgxODIsInkiOjI3Ni4xNTY0NDQ1NDk1NjA1NX1d" data-look="classic" marker-end="url(#my-svg_flowchart-v2-pointEnd)"/><path d="M664.047,327.156L668.214,327.156C672.38,327.156,680.714,327.156,688.513,327.156C696.313,327.156,703.578,327.156,707.211,327.156L710.844,327.156" id="my-svg-L_mw_routes_0" class="edge-thickness-normal edge-pattern-solid edge-thickness-normal edge-pattern-solid flowchart-link" style=";" data-edge="true" data-et="edge" data-id="L_mw_routes_0" data-points="W3sieCI6NjY0LjA0Njg3NSwieSI6MzI3LjE1NjQ0NDU0OTU2MDU1fSx7IngiOjY4OS4wNDY4NzUsInkiOjMyNy4xNTY0NDQ1NDk1NjA1NX0seyJ4Ijo3MTQuODQzNzUsInkiOjMyNy4xNTY0NDQ1NDk1NjA1NX1d" data-look="classic" marker-end="url(#my-svg_flowchart-v2-pointEnd)"/><path d="M815.481,300.156L828.216,286.409C840.951,272.662,866.421,245.168,882.656,231.42C898.891,217.673,905.891,217.673,909.391,217.673L912.891,217.673" id="my-svg-L_routes_limiter_0" class="edge-thickness-normal edge-pattern-solid edge-thickness-normal edge-pattern-solid flowchart-link" style=";" data-edge="true" data-et="edge" data-id="L_routes_limiter_0" data-points="W3sieCI6ODE1LjQ4MDcyMDEyNjUxMjMsInkiOjMwMC4xNTY0NDQ1NDk1NjA1NX0seyJ4Ijo4OTEuODkwNjI1LCJ5IjoyMTcuNjczMjQwNjYxNjIxMX0seyJ4Ijo5MTYuODkwNjI1LCJ5IjoyMTcuNjczMjQwNjYxNjIxMX1d" data-look="classic" marker-end="url(#my-svg_flowchart-v2-pointEnd)"/><path d="M1140.313,217.673L1159.715,217.673C1179.117,217.673,1217.922,217.673,1256.727,217.673C1295.531,217.673,1334.336,217.673,1368.502,199.491C1402.667,181.309,1432.194,144.945,1446.957,126.763L1461.72,108.58" id="my-svg-L_limiter_redis_0" class="edge-thickness-normal edge-pattern-solid edge-thickness-normal edge-pattern-solid flowchart-link" style=";" data-edge="true" data-et="edge" data-id="L_limiter_redis_0" data-points="W3sieCI6MTE0MC4zMTI1LCJ5IjoyMTcuNjczMjQwNjYxNjIxMX0seyJ4IjoxMjU2LjcyNjU2MjUsInkiOjIxNy42NzMyNDA2NjE2MjExfSx7IngiOjEzNzMuMTQwNjI1LCJ5IjoyMTcuNjczMjQwNjYxNjIxMX0seyJ4IjoxNDY0LjI0MTY4MTAyMTI4ODcsInkiOjEwNS40NzUxMjE4ODc0NzE2N31d" data-look="classic" marker-end="url(#my-svg_flowchart-v2-pointEnd)"/><path d="M866.094,336.49L870.393,337.02C874.693,337.551,883.292,338.612,893.603,339.143C903.914,339.673,915.938,339.673,921.949,339.673L927.961,339.673" id="my-svg-L_routes_idem_0" class="edge-thickness-normal edge-pattern-solid edge-thickness-normal edge-pattern-solid flowchart-link" style=";" data-edge="true" data-et="edge" data-id="L_routes_idem_0" data-points="W3sieCI6ODY2LjA5Mzc1LCJ5IjozMzYuNDg5NTY2Mjg0NjM1N30seyJ4Ijo4OTEuODkwNjI1LCJ5IjozMzkuNjczMjQwNjYxNjIxMX0seyJ4Ijo5MzEuOTYwOTM3NSwieSI6MzM5LjY3MzI0MDY2MTYyMTF9XQ==" data-look="classic" marker-end="url(#my-svg_flowchart-v2-pointEnd)"/><path d="M1125.242,315.103L1147.156,309.531C1169.07,303.96,1212.898,292.816,1254.215,287.245C1295.531,281.673,1334.336,281.673,1370.592,253.162C1406.848,224.651,1440.555,167.628,1457.409,139.116L1474.262,110.605" id="my-svg-L_idem_redis_0" class="edge-thickness-normal edge-pattern-solid edge-thickness-normal edge-pattern-solid flowchart-link" style=";" data-edge="true" data-et="edge" data-id="L_idem_redis_0" data-points="W3sieCI6MTEyNS4yNDIxODc1LCJ5IjozMTUuMTAyNjkyNzE2NDE1Nn0seyJ4IjoxMjU2LjcyNjU2MjUsInkiOjI4MS42NzMyNDA2NjE2MjExfSx7IngiOjEzNzMuMTQwNjI1LCJ5IjoyODEuNjczMjQwNjYxNjIxMX0seyJ4IjoxNDc2LjI5NzYxODg3MjYzMzIsInkiOjEwNy4xNjE3MDcxODUyNjg3MX1d" data-look="classic" marker-end="url(#my-svg_flowchart-v2-pointEnd)"/><path d="M1125.242,334.371L1147.156,333.168C1169.07,331.966,1212.898,329.561,1254.215,328.359C1295.531,327.156,1334.336,327.156,1375.934,327.156C1417.531,327.156,1461.922,327.156,1522.979,327.156C1584.036,327.156,1661.76,327.156,1743.122,327.156C1824.484,327.156,1909.484,327.156,1977.818,327.156C2046.151,327.156,2097.818,327.156,2150.346,327.156C2202.875,327.156,2256.266,327.156,2315.404,352.429C2374.542,377.702,2439.428,428.248,2471.87,453.52L2504.313,478.793" id="my-svg-L_idem_pg_0" class="edge-thickness-normal edge-pattern-solid edge-thickness-normal edge-pattern-solid flowchart-link" style=";" data-edge="true" data-et="edge" data-id="L_idem_pg_0" data-points="W3sieCI6MTEyNS4yNDIxODc1LCJ5IjozMzQuMzcwNzQ4NjEwMDM5M30seyJ4IjoxMjU2LjcyNjU2MjUsInkiOjMyNy4xNTY0NDQ1NDk1NjA1NX0seyJ4IjoxMzczLjE0MDYyNSwieSI6MzI3LjE1NjQ0NDU0OTU2MDU1fSx7IngiOjE1MDYuMzEyNSwieSI6MzI3LjE1NjQ0NDU0OTU2MDU1fSx7IngiOjE3MzkuNDg0Mzc1LCJ5IjozMjcuMTU2NDQ0NTQ5NTYwNTV9LHsieCI6MTk5NC40ODQzNzUsInkiOjMyNy4xNTY0NDQ1NDk1NjA1NX0seyJ4IjoyMTQ5LjQ4NDM3NSwieSI6MzI3LjE1NjQ0NDU0OTU2MDU1fSx7IngiOjIzMDkuNjU2MjUsInkiOjMyNy4xNTY0NDQ1NDk1NjA1NX0seyJ4IjoyNTA3LjQ2ODc1LCJ5Ijo0ODEuMjUxMzk1ODIwMDEyN31d" data-look="classic" marker-end="url(#my-svg_flowchart-v2-pointEnd)"/><path d="M1076.917,366.673L1106.885,383.42C1136.853,400.168,1196.79,433.662,1246.161,450.409C1295.531,467.156,1334.336,467.156,1360.806,467.156C1387.276,467.156,1401.411,467.156,1408.479,467.156L1415.547,467.156" id="my-svg-L_idem_saga_0" class="edge-thickness-normal edge-pattern-solid edge-thickness-normal edge-pattern-solid flowchart-link" style=";" data-edge="true" data-et="edge" data-id="L_idem_saga_0" data-points="W3sieCI6MTA3Ni45MTY3NTA3OTI2ODA3LCJ5IjozNjYuNjczMjQwNjYxNjIxMX0seyJ4IjoxMjU2LjcyNjU2MjUsInkiOjQ2Ny4xNTY0NDQ1NDk1NjA1NX0seyJ4IjoxMzczLjE0MDYyNSwieSI6NDY3LjE1NjQ0NDU0OTU2MDU1fSx7IngiOjE0MTkuNTQ2ODc1LCJ5Ijo0NjcuMTU2NDQ0NTQ5NTYwNTV9XQ==" data-look="classic" marker-end="url(#my-svg_flowchart-v2-pointEnd)"/><path d="M795.47,354.156L811.54,440.909C827.61,527.662,859.75,701.168,884.731,787.92C909.711,874.673,927.531,874.673,936.441,874.673L945.352,874.673" id="my-svg-L_routes_quotes_0" class="edge-thickness-normal edge-pattern-solid edge-thickness-normal edge-pattern-solid flowchart-link" style=";" data-edge="true" data-et="edge" data-id="L_routes_quotes_0" data-points="W3sieCI6Nzk1LjQ3MDIyMzI3Nzk4MDYsInkiOjM1NC4xNTY0NDQ1NDk1NjA1NX0seyJ4Ijo4OTEuODkwNjI1LCJ5Ijo4NzQuNjczMjQwNjYxNjIxMX0seyJ4Ijo5NDkuMzUxNTYyNSwieSI6ODc0LjY3MzI0MDY2MTYyMTF9XQ==" data-look="classic" marker-end="url(#my-svg_flowchart-v2-pointEnd)"/><path d="M1107.852,852.092L1132.664,845.023C1157.477,837.953,1207.102,823.813,1251.316,816.743C1295.531,809.673,1334.336,809.673,1374.33,693.475C1414.325,577.277,1455.509,344.882,1476.101,228.684L1496.693,112.486" id="my-svg-L_quotes_redis_0" class="edge-thickness-normal edge-pattern-solid edge-thickness-normal edge-pattern-solid flowchart-link" style=";" data-edge="true" data-et="edge" data-id="L_quotes_redis_0" data-points="W3sieCI6MTEwNy44NTE1NjI1LCJ5Ijo4NTIuMDkyNDE4NzQzODEyOX0seyJ4IjoxMjU2LjcyNjU2MjUsInkiOjgwOS42NzMyNDA2NjE2MjExfSx7IngiOjEzNzMuMTQwNjI1LCJ5Ijo4MDkuNjczMjQwNjYxNjIxMX0seyJ4IjoxNDk3LjM5MDUwNDI4MDMzNzYsInkiOjEwOC41NDcwODU2MzczNDIwMn1d" data-look="classic" marker-end="url(#my-svg_flowchart-v2-pointEnd)"/><path d="M1107.852,873.799L1132.664,873.525C1157.477,873.251,1207.102,872.704,1251.316,872.43C1295.531,872.156,1334.336,872.156,1375.934,872.156C1417.531,872.156,1461.922,872.156,1522.979,872.156C1584.036,872.156,1661.76,872.156,1743.122,872.156C1824.484,872.156,1909.484,872.156,1977.818,872.156C2046.151,872.156,2097.818,872.156,2150.346,872.156C2202.875,872.156,2256.266,872.156,2319.72,820.728C2383.174,769.299,2456.691,666.441,2493.45,615.012L2530.208,563.583" id="my-svg-L_quotes_pg_0" class="edge-thickness-normal edge-pattern-solid edge-thickness-normal edge-pattern-solid flowchart-link" style=";" data-edge="true" data-et="edge" data-id="L_quotes_pg_0" data-points="W3sieCI6MTEwNy44NTE1NjI1LCJ5Ijo4NzMuNzk4OTEyNTg3NjIzfSx7IngiOjEyNTYuNzI2NTYyNSwieSI6ODcyLjE1NjQ0NDU0OTU2MDV9LHsieCI6MTM3My4xNDA2MjUsInkiOjg3Mi4xNTY0NDQ1NDk1NjA1fSx7IngiOjE1MDYuMzEyNSwieSI6ODcyLjE1NjQ0NDU0OTU2MDV9LHsieCI6MTczOS40ODQzNzUsInkiOjg3Mi4xNTY0NDQ1NDk1NjA1fSx7IngiOjE5OTQuNDg0Mzc1LCJ5Ijo4NzIuMTU2NDQ0NTQ5NTYwNX0seyJ4IjoyMTQ5LjQ4NDM3NSwieSI6ODcyLjE1NjQ0NDU0OTU2MDV9LHsieCI6MjMwOS42NTYyNSwieSI6ODcyLjE1NjQ0NDU0OTU2MDV9LHsieCI6MjUzMi41MzQxMzQ3NzU2NzUsInkiOjU2MC4zMjg2NDI0MzM3OTE2fV0=" data-look="classic" marker-end="url(#my-svg_flowchart-v2-pointEnd)"/><path d="M1107.852,886.653L1132.664,890.403C1157.477,894.154,1207.102,901.655,1251.316,905.406C1295.531,909.156,1334.336,909.156,1375.934,909.156C1417.531,909.156,1461.922,909.156,1522.979,909.156C1584.036,909.156,1661.76,909.156,1736.904,868.321C1812.048,827.487,1884.612,745.817,1920.894,704.982L1957.176,664.147" id="my-svg-L_quotes_engine_0" class="edge-thickness-normal edge-pattern-solid edge-thickness-normal edge-pattern-solid flowchart-link" style=";" data-edge="true" data-et="edge" data-id="L_quotes_engine_0" data-points="W3sieCI6MTEwNy44NTE1NjI1LCJ5Ijo4ODYuNjUyNjExMjE3NzYwMX0seyJ4IjoxMjU2LjcyNjU2MjUsInkiOjkwOS4xNTY0NDQ1NDk1NjA1fSx7IngiOjEzNzMuMTQwNjI1LCJ5Ijo5MDkuMTU2NDQ0NTQ5NTYwNX0seyJ4IjoxNTA2LjMxMjUsInkiOjkwOS4xNTY0NDQ1NDk1NjA1fSx7IngiOjE3MzkuNDg0Mzc1LCJ5Ijo5MDkuMTU2NDQ0NTQ5NTYwNX0seyJ4IjoxOTU5LjgzMjgwNzA1NTc0OSwieSI6NjYxLjE1NjQ0NDU0OTU2MDV9XQ==" data-look="classic" marker-end="url(#my-svg_flowchart-v2-pointEnd)"/><path d="M1593.078,433.294L1617.479,423.771C1641.88,414.248,1690.682,395.202,1750.366,419.717C1810.049,444.231,1880.614,512.305,1915.896,546.342L1951.179,580.379" id="my-svg-L_saga_engine_0" class="edge-thickness-normal edge-pattern-solid edge-thickness-normal edge-pattern-solid flowchart-link" style=";" data-edge="true" data-et="edge" data-id="L_saga_engine_0" data-points="W3sieCI6MTU5My4wNzgxMjUsInkiOjQzMy4yOTQ0MTk0ODc1NzU3fSx7IngiOjE3MzkuNDg0Mzc1LCJ5IjozNzYuMTU2NDQ0NTQ5NTYwNTV9LHsieCI6MTk1NC4wNTc1NDU3MzE3MDczLCJ5Ijo1ODMuMTU2NDQ0NTQ5NTYwNX1d" data-look="classic" marker-end="url(#my-svg_flowchart-v2-pointEnd)"/><path d="M1593.078,440.737L1617.479,433.307C1641.88,425.877,1690.682,411.017,1757.583,403.586C1824.484,396.156,1909.484,396.156,1977.818,396.156C2046.151,396.156,2097.818,396.156,2150.346,396.156C2202.875,396.156,2256.266,396.156,2315.322,410.719C2374.378,425.283,2439.099,454.409,2471.46,468.972L2503.821,483.535" id="my-svg-L_saga_pg_0" class="edge-thickness-normal edge-pattern-solid edge-thickness-normal edge-pattern-solid flowchart-link" style=";" data-edge="true" data-et="edge" data-id="L_saga_pg_0" data-points="W3sieCI6MTU5My4wNzgxMjUsInkiOjQ0MC43MzY2MjI3OTc5MDIwNH0seyJ4IjoxNzM5LjQ4NDM3NSwieSI6Mzk2LjE1NjQ0NDU0OTU2MDU1fSx7IngiOjE5OTQuNDg0Mzc1LCJ5IjozOTYuMTU2NDQ0NTQ5NTYwNTV9LHsieCI6MjE0OS40ODQzNzUsInkiOjM5Ni4xNTY0NDQ1NDk1NjA1NX0seyJ4IjoyMzA5LjY1NjI1LCJ5IjozOTYuMTU2NDQ0NTQ5NTYwNTV9LHsieCI6MjUwNy40Njg3NSwieSI6NDg1LjE3NjI0NzEzNzIxMjV9XQ==" data-look="classic" marker-end="url(#my-svg_flowchart-v2-pointEnd)"/><path d="M1593.078,477.203L1617.479,480.029C1641.88,482.854,1690.682,488.505,1744.305,491.331C1797.927,494.156,1856.37,494.156,1885.591,494.156L1914.813,494.156" id="my-svg-L_saga_ledger_0" class="edge-thickness-normal edge-pattern-solid edge-thickness-normal edge-pattern-solid flowchart-link" style=";" data-edge="true" data-et="edge" data-id="L_saga_ledger_0" data-points="W3sieCI6MTU5My4wNzgxMjUsInkiOjQ3Ny4yMDM0MTkwMTg1MDExfSx7IngiOjE3MzkuNDg0Mzc1LCJ5Ijo0OTQuMTU2NDQ0NTQ5NTYwNTV9LHsieCI6MTkxOC44MTI1LCJ5Ijo0OTQuMTU2NDQ0NTQ5NTYwNTV9XQ==" data-look="classic" marker-end="url(#my-svg_flowchart-v2-pointEnd)"/><path d="M2070.156,494.156L2083.378,494.156C2096.599,494.156,2123.042,494.156,2162.958,494.156C2202.875,494.156,2256.266,494.156,2315.265,496.467C2374.264,498.777,2438.871,503.398,2471.175,505.708L2503.479,508.018" id="my-svg-L_ledger_pg_0" class="edge-thickness-normal edge-pattern-solid edge-thickness-normal edge-pattern-solid flowchart-link" style=";" data-edge="true" data-et="edge" data-id="L_ledger_pg_0" data-points="W3sieCI6MjA3MC4xNTYyNSwieSI6NDk0LjE1NjQ0NDU0OTU2MDU1fSx7IngiOjIxNDkuNDg0Mzc1LCJ5Ijo0OTQuMTU2NDQ0NTQ5NTYwNTV9LHsieCI6MjMwOS42NTYyNSwieSI6NDk0LjE1NjQ0NDU0OTU2MDU1fSx7IngiOjI1MDcuNDY4NzUsInkiOjUwOC4zMDM0MzA5ODgwMzE3fV0=" data-look="classic" marker-end="url(#my-svg_flowchart-v2-pointEnd)"/><path d="M1535.934,506.156L1569.859,550.823C1603.784,595.49,1671.634,684.823,1725.726,729.49C1779.818,774.156,1820.151,774.156,1840.318,774.156L1860.484,774.156" id="my-svg-L_saga_adapters_0" class="edge-thickness-normal edge-pattern-solid edge-thickness-normal edge-pattern-solid flowchart-link" style=";" data-edge="true" data-et="edge" data-id="L_saga_adapters_0" data-points="W3sieCI6MTUzNS45MzM2ODI4MTc1ODk3LCJ5Ijo1MDYuMTU2NDQ0NTQ5NTYwNTV9LHsieCI6MTczOS40ODQzNzUsInkiOjc3NC4xNTY0NDQ1NDk1NjA1fSx7IngiOjE4NjQuNDg0Mzc1LCJ5Ijo3NzQuMTU2NDQ0NTQ5NTYwNX1d" data-look="classic" marker-end="url(#my-svg_flowchart-v2-pointEnd)"/><path d="M2124.484,774.156L2128.651,774.156C2132.818,774.156,2141.151,774.156,2172.013,774.156C2202.875,774.156,2256.266,774.156,2317.938,803.811C2379.611,833.466,2449.565,892.776,2484.543,922.431L2519.52,952.086" id="my-svg-L_adapters_partner_0" class="edge-thickness-normal edge-pattern-solid edge-thickness-normal edge-pattern-solid flowchart-link" style=";" data-edge="true" data-et="edge" data-id="L_adapters_partner_0" data-points="W3sieCI6MjEyNC40ODQzNzUsInkiOjc3NC4xNTY0NDQ1NDk1NjA1fSx7IngiOjIxNDkuNDg0Mzc1LCJ5Ijo3NzQuMTU2NDQ0NTQ5NTYwNX0seyJ4IjoyMzA5LjY1NjI1LCJ5Ijo3NzQuMTU2NDQ0NTQ5NTYwNX0seyJ4IjoyNTIyLjU3MDg3ODIxMzY4MSwieSI6OTU0LjY3MzI0MDY2MTYyMTF9XQ==" data-look="classic" marker-end="url(#my-svg_flowchart-v2-pointEnd)"/><path d="M1583.089,1082.673L1609.155,1073.507C1635.221,1064.34,1687.352,1046.007,1755.918,1036.84C1824.484,1027.673,1909.484,1027.673,1977.818,1027.673C2046.151,1027.673,2097.818,1027.673,2150.346,1027.673C2202.875,1027.673,2256.266,1027.673,2321.622,950.592C2386.978,873.511,2464.301,719.349,2502.962,642.268L2541.623,565.186" id="my-svg-L_recon_pg_0" class="edge-thickness-normal edge-pattern-solid edge-thickness-normal edge-pattern-solid flowchart-link" style=";" data-edge="true" data-et="edge" data-id="L_recon_pg_0" data-points="W3sieCI6MTU4My4wODg2MDUxODI5MjY4LCJ5IjoxMDgyLjY3MzI0MDY2MTYyMX0seyJ4IjoxNzM5LjQ4NDM3NSwieSI6MTAyNy42NzMyNDA2NjE2MjF9LHsieCI6MTk5NC40ODQzNzUsInkiOjEwMjcuNjczMjQwNjYxNjIxfSx7IngiOjIxNDkuNDg0Mzc1LCJ5IjoxMDI3LjY3MzI0MDY2MTYyMX0seyJ4IjoyMzA5LjY1NjI1LCJ5IjoxMDI3LjY3MzI0MDY2MTYyMX0seyJ4IjoyNTQzLjQxNjEzNjUzMDY0OTUsInkiOjU2MS42MTA5ODk3MzE2MTAyfV0=" data-look="classic" marker-end="url(#my-svg_flowchart-v2-pointEnd)"/><path d="M1614.484,1122.663L1635.318,1125.165C1656.151,1127.666,1697.818,1132.67,1746.141,1135.172C1794.464,1137.673,1849.443,1137.673,1876.932,1137.673L1904.422,1137.673" id="my-svg-L_recon_wadapters_0" class="edge-thickness-normal edge-pattern-solid edge-thickness-normal edge-pattern-solid flowchart-link" style=";" data-edge="true" data-et="edge" data-id="L_recon_wadapters_0" data-points="W3sieCI6MTYxNC40ODQzNzUsInkiOjExMjIuNjYyODU0MDEwMTQzNX0seyJ4IjoxNzM5LjQ4NDM3NSwieSI6MTEzNy42NzMyNDA2NjE2MjF9LHsieCI6MTkwOC40MjE4NzUsInkiOjExMzcuNjczMjQwNjYxNjIxfV0=" data-look="classic" marker-end="url(#my-svg_flowchart-v2-pointEnd)"/><path d="M2080.547,1137.673L2092.036,1137.673C2103.526,1137.673,2126.505,1137.673,2164.69,1137.673C2202.875,1137.673,2256.266,1137.673,2313.844,1120.497C2371.422,1103.321,2433.187,1068.969,2464.069,1051.793L2494.952,1034.617" id="my-svg-L_wadapters_partner_0" class="edge-thickness-normal edge-pattern-solid edge-thickness-normal edge-pattern-solid flowchart-link" style=";" data-edge="true" data-et="edge" data-id="L_wadapters_partner_0" data-points="W3sieCI6MjA4MC41NDY4NzUsInkiOjExMzcuNjczMjQwNjYxNjIxfSx7IngiOjIxNDkuNDg0Mzc1LCJ5IjoxMTM3LjY3MzI0MDY2MTYyMX0seyJ4IjoyMzA5LjY1NjI1LCJ5IjoxMTM3LjY3MzI0MDY2MTYyMX0seyJ4IjoyNDk4LjQ0Nzc1MzkwNjI1LCJ5IjoxMDMyLjY3MzI0MDY2MTYyMX1d" data-look="classic" marker-end="url(#my-svg_flowchart-v2-pointEnd)"/><path d="M112.641,1031.673L140.037,1009.007C167.433,986.34,222.224,941.007,270.453,918.34C318.682,895.673,360.349,895.673,402.793,810.067C445.236,724.46,488.457,553.248,510.067,467.641L531.678,382.035" id="my-svg-L_prom_mw_0" class="edge-thickness-normal edge-pattern-solid edge-thickness-normal edge-pattern-solid flowchart-link" style=";" data-edge="true" data-et="edge" data-id="L_prom_mw_0" data-points="W3sieCI6MTEyLjY0MTAwODQzNTU4MjgyLCJ5IjoxMDMxLjY3MzI0MDY2MTYyMX0seyJ4IjoyNzcuMDE1NjI1LCJ5Ijo4OTUuNjczMjQwNjYxNjIxMX0seyJ4Ijo0MDIuMDE1NjI1LCJ5Ijo4OTUuNjczMjQwNjYxNjIxMX0seyJ4Ijo1MzIuNjU2ODc3NzI5ODE0MSwieSI6Mzc4LjE1NjQ0NDU0OTU2MDU1fV0=" data-look="classic" marker-end="url(#my-svg_flowchart-v2-pointEnd)"/><path d="M152.016,1077.314L172.849,1082.707C193.682,1088.1,235.349,1098.887,277.016,1104.28C318.682,1109.673,360.349,1109.673,405.102,1109.673C449.854,1109.673,497.693,1109.673,545.531,1109.673C593.37,1109.673,641.208,1109.673,682.031,1109.673C722.854,1109.673,756.661,1109.673,790.469,1109.673C824.276,1109.673,858.083,1109.673,897.772,1109.673C937.461,1109.673,983.031,1109.673,1043.837,1109.673C1104.643,1109.673,1180.685,1109.673,1238.108,1109.673C1295.531,1109.673,1334.336,1109.673,1357.238,1109.673C1380.141,1109.673,1387.141,1109.673,1390.641,1109.673L1394.141,1109.673" id="my-svg-L_prom_recon_0" class="edge-thickness-normal edge-pattern-solid edge-thickness-normal edge-pattern-solid flowchart-link" style=";" data-edge="true" data-et="edge" data-id="L_prom_recon_0" data-points="W3sieCI6MTUyLjAxNTYyNSwieSI6MTA3Ny4zMTQxMTc4NDc2NDY1fSx7IngiOjI3Ny4wMTU2MjUsInkiOjExMDkuNjczMjQwNjYxNjIxfSx7IngiOjQwMi4wMTU2MjUsInkiOjExMDkuNjczMjQwNjYxNjIxfSx7IngiOjU0NS41MzEyNSwieSI6MTEwOS42NzMyNDA2NjE2MjF9LHsieCI6Njg5LjA0Njg3NSwieSI6MTEwOS42NzMyNDA2NjE2MjF9LHsieCI6NzkwLjQ2ODc1LCJ5IjoxMTA5LjY3MzI0MDY2MTYyMX0seyJ4Ijo4OTEuODkwNjI1LCJ5IjoxMTA5LjY3MzI0MDY2MTYyMX0seyJ4IjoxMDI4LjYwMTU2MjUsInkiOjExMDkuNjczMjQwNjYxNjIxfSx7IngiOjEyNTYuNzI2NTYyNSwieSI6MTEwOS42NzMyNDA2NjE2MjF9LHsieCI6MTM3My4xNDA2MjUsInkiOjExMDkuNjczMjQwNjYxNjIxfSx7IngiOjEzOTguMTQwNjI1LCJ5IjoxMTA5LjY3MzI0MDY2MTYyMX1d" data-look="classic" marker-end="url(#my-svg_flowchart-v2-pointEnd)"/></g><g class="edgeLabels"><g class="edgeLabel" transform="translate(277.015625, 206.6732406616211)"><g class="label" data-id="L_client_mw_0" transform="translate(-100, -36)"><foreignObject width="200" height="72"><div xmlns="http://www.w3.org/1999/xhtml" class="labelBkg" style="display: table; white-space: break-spaces; line-height: 1.5; max-width: 200px; text-align: center; width: 200px;"><span class="edgeLabel"><p>JSON over HTTP<br />X-User-Id, Idempotency-Key</p></span></div></foreignObject></g></g><g class="edgeLabel"><g class="label" data-id="L_mw_routes_0" transform="translate(0, 0)"><foreignObject width="0" height="0"><div xmlns="http://www.w3.org/1999/xhtml" class="labelBkg" style="display: table-cell; white-space: nowrap; line-height: 1.5; max-width: 200px; text-align: center;"><span class="edgeLabel"></span></div></foreignObject></g></g><g class="edgeLabel"><g class="label" data-id="L_routes_limiter_0" transform="translate(0, 0)"><foreignObject width="0" height="0"><div xmlns="http://www.w3.org/1999/xhtml" class="labelBkg" style="display: table-cell; white-space: nowrap; line-height: 1.5; max-width: 200px; text-align: center;"><span class="edgeLabel"></span></div></foreignObject></g></g><g class="edgeLabel" transform="translate(1256.7265625, 217.6732406616211)"><g class="label" data-id="L_limiter_redis_0" transform="translate(-91.4140625, -12)"><foreignObject width="182.828125" height="24"><div xmlns="http://www.w3.org/1999/xhtml" class="labelBkg" style="display: table-cell; white-space: nowrap; line-height: 1.5; max-width: 200px; text-align: center;"><span class="edgeLabel"><p>INCR per-window counter</p></span></div></foreignObject></g></g><g class="edgeLabel"><g class="label" data-id="L_routes_idem_0" transform="translate(0, 0)"><foreignObject width="0" height="0"><div xmlns="http://www.w3.org/1999/xhtml" class="labelBkg" style="display: table-cell; white-space: nowrap; line-height: 1.5; max-width: 200px; text-align: center;"><span class="edgeLabel"></span></div></foreignObject></g></g><g class="edgeLabel" transform="translate(1256.7265625, 281.6732406616211)"><g class="label" data-id="L_idem_redis_0" transform="translate(-52.984375, -12)"><foreignObject width="105.96875" height="24"><div xmlns="http://www.w3.org/1999/xhtml" class="labelBkg" style="display: table-cell; white-space: nowrap; line-height: 1.5; max-width: 200px; text-align: center;"><span class="edgeLabel"><p>SET NX PX lock</p></span></div></foreignObject></g></g><g class="edgeLabel" transform="translate(1739.484375, 327.15644454956055)"><g class="label" data-id="L_idem_pg_0" transform="translate(-81.8515625, -24)"><foreignObject width="163.703125" height="48"><div xmlns="http://www.w3.org/1999/xhtml" class="labelBkg" style="display: table-cell; white-space: nowrap; line-height: 1.5; max-width: 200px; text-align: center;"><span class="edgeLabel"><p>idempotency_keys row<br />(the guarantee)</p></span></div></foreignObject></g></g><g class="edgeLabel"><g class="label" data-id="L_idem_saga_0" transform="translate(0, 0)"><foreignObject width="0" height="0"><div xmlns="http://www.w3.org/1999/xhtml" class="labelBkg" style="display: table-cell; white-space: nowrap; line-height: 1.5; max-width: 200px; text-align: center;"><span class="edgeLabel"></span></div></foreignObject></g></g><g class="edgeLabel"><g class="label" data-id="L_routes_quotes_0" transform="translate(0, 0)"><foreignObject width="0" height="0"><div xmlns="http://www.w3.org/1999/xhtml" class="labelBkg" style="display: table-cell; white-space: nowrap; line-height: 1.5; max-width: 200px; text-align: center;"><span class="edgeLabel"></span></div></foreignObject></g></g><g class="edgeLabel" transform="translate(1256.7265625, 809.6732406616211)"><g class="label" data-id="L_quotes_redis_0" transform="translate(-85.1171875, -12)"><foreignObject width="170.234375" height="24"><div xmlns="http://www.w3.org/1999/xhtml" class="labelBkg" style="display: table-cell; white-space: nowrap; line-height: 1.5; max-width: 200px; text-align: center;"><span class="edgeLabel"><p>route config, TTL cache</p></span></div></foreignObject></g></g><g class="edgeLabel" transform="translate(1739.484375, 872.1564445495605)"><g class="label" data-id="L_quotes_pg_0" transform="translate(-91.046875, -12)"><foreignObject width="182.09375" height="24"><div xmlns="http://www.w3.org/1999/xhtml" class="labelBkg" style="display: table-cell; white-space: nowrap; line-height: 1.5; max-width: 200px; text-align: center;"><span class="edgeLabel"><p>cache miss or Redis down</p></span></div></foreignObject></g></g><g class="edgeLabel"><g class="label" data-id="L_quotes_engine_0" transform="translate(0, 0)"><foreignObject width="0" height="0"><div xmlns="http://www.w3.org/1999/xhtml" class="labelBkg" style="display: table-cell; white-space: nowrap; line-height: 1.5; max-width: 200px; text-align: center;"><span class="edgeLabel"></span></div></foreignObject></g></g><g class="edgeLabel"><g class="label" data-id="L_saga_engine_0" transform="translate(0, 0)"><foreignObject width="0" height="0"><div xmlns="http://www.w3.org/1999/xhtml" class="labelBkg" style="display: table-cell; white-space: nowrap; line-height: 1.5; max-width: 200px; text-align: center;"><span class="edgeLabel"></span></div></foreignObject></g></g><g class="edgeLabel" transform="translate(1994.484375, 396.15644454956055)"><g class="label" data-id="L_saga_pg_0" transform="translate(-100, -24)"><foreignObject width="200" height="48"><div xmlns="http://www.w3.org/1999/xhtml" class="labelBkg" style="display: table; white-space: break-spaces; line-height: 1.5; max-width: 200px; text-align: center; width: 200px;"><span class="edgeLabel"><p>rates read inside the debit transaction</p></span></div></foreignObject></g></g><g class="edgeLabel"><g class="label" data-id="L_saga_ledger_0" transform="translate(0, 0)"><foreignObject width="0" height="0"><div xmlns="http://www.w3.org/1999/xhtml" class="labelBkg" style="display: table-cell; white-space: nowrap; line-height: 1.5; max-width: 200px; text-align: center;"><span class="edgeLabel"></span></div></foreignObject></g></g><g class="edgeLabel" transform="translate(2309.65625, 494.15644454956055)"><g class="label" data-id="L_ledger_pg_0" transform="translate(-73.609375, -24)"><foreignObject width="147.21875" height="48"><div xmlns="http://www.w3.org/1999/xhtml" class="labelBkg" style="display: table-cell; white-space: nowrap; line-height: 1.5; max-width: 200px; text-align: center;"><span class="edgeLabel"><p>short transactions,<br />row locks in id order</p></span></div></foreignObject></g></g><g class="edgeLabel" transform="translate(1739.484375, 774.1564445495605)"><g class="label" data-id="L_saga_adapters_0" transform="translate(-100, -36)"><foreignObject width="200" height="72"><div xmlns="http://www.w3.org/1999/xhtml" class="labelBkg" style="display: table; white-space: break-spaces; line-height: 1.5; max-width: 200px; text-align: center; width: 200px;"><span class="edgeLabel"><p>credit, reference = transfer id<br />(no transaction open)</p></span></div></foreignObject></g></g><g class="edgeLabel" transform="translate(2309.65625, 774.1564445495605)"><g class="label" data-id="L_adapters_partner_0" transform="translate(-100, -24)"><foreignObject width="200" height="48"><div xmlns="http://www.w3.org/1999/xhtml" class="labelBkg" style="display: table; white-space: break-spaces; line-height: 1.5; max-width: 200px; text-align: center; width: 200px;"><span class="edgeLabel"><p>POST /partners/{code}/credits</p></span></div></foreignObject></g></g><g class="edgeLabel" transform="translate(1994.484375, 1027.673240661621)"><g class="label" data-id="L_recon_pg_0" transform="translate(-100, -36)"><foreignObject width="200" height="72"><div xmlns="http://www.w3.org/1999/xhtml" class="labelBkg" style="display: table; white-space: break-spaces; line-height: 1.5; max-width: 200px; text-align: center; width: 200px;"><span class="edgeLabel"><p>claim: FOR UPDATE SKIP LOCKED + lease<br />settle / reverse journals</p></span></div></foreignObject></g></g><g class="edgeLabel"><g class="label" data-id="L_recon_wadapters_0" transform="translate(0, 0)"><foreignObject width="0" height="0"><div xmlns="http://www.w3.org/1999/xhtml" class="labelBkg" style="display: table-cell; white-space: nowrap; line-height: 1.5; max-width: 200px; text-align: center;"><span class="edgeLabel"></span></div></foreignObject></g></g><g class="edgeLabel" transform="translate(2309.65625, 1137.673240661621)"><g class="label" data-id="L_wadapters_partner_0" transform="translate(-135.171875, -24)"><foreignObject width="270.34375" height="48"><div xmlns="http://www.w3.org/1999/xhtml" class="labelBkg" style="display: table; white-space: break-spaces; line-height: 1.5; max-width: 200px; text-align: center; width: 200px;"><span class="edgeLabel"><p>GET /partners/{code}/credits/{reference}</p></span></div></foreignObject></g></g><g class="edgeLabel" transform="translate(277.015625, 895.6732406616211)"><g class="label" data-id="L_prom_mw_0" transform="translate(-56.703125, -12)"><foreignObject width="113.40625" height="24"><div xmlns="http://www.w3.org/1999/xhtml" class="labelBkg" style="display: table-cell; white-space: nowrap; line-height: 1.5; max-width: 200px; text-align: center;"><span class="edgeLabel"><p>scrape /metrics</p></span></div></foreignObject></g></g><g class="edgeLabel" transform="translate(790.46875, 1109.673240661621)"><g class="label" data-id="L_prom_recon_0" transform="translate(-76.421875, -12)"><foreignObject width="152.84375" height="24"><div xmlns="http://www.w3.org/1999/xhtml" class="labelBkg" style="display: table-cell; white-space: nowrap; line-height: 1.5; max-width: 200px; text-align: center;"><span class="edgeLabel"><p>scrape :9100/metrics</p></span></div></foreignObject></g></g></g><g class="nodes"><g class="node default" id="my-svg-flowchart-client-0" data-look="classic" transform="translate(80.0078125, 206.6732406616211)"><g class="basic label-container outer-path"><path d="M-27.203125 -19.5 C-11.902416508241046 -19.5, 3.3982919835179075 -19.5, 27.203125 -19.5 C27.203125 -19.5, 27.203125 -19.5, 27.203125 -19.5 C27.59490497410379 -19.48743637878395, 27.986684948207582 -19.4748727575679, 28.4524942896239 -19.45993515863156 C28.76016213554809 -19.430254811559973, 29.067829981472283 -19.400574464488386, 29.696729652847864 -19.3399052695533 C29.986482564280138 -19.29306026590032, 30.27623547571241 -19.246215262247336, 30.93071825967676 -19.140403561325776 C31.285142580717572 -19.05950852288305, 31.639566901758386 -18.978613484440324, 32.14938938623539 -18.862249829261074 C32.589431490276695 -18.731647642609754, 33.02947359431799 -18.601045455958438, 33.347735251460605 -18.50658706670804 C33.60461450654236 -18.41205312627215, 33.86149376162412 -18.31751918583626, 34.5208315951478 -18.074876768247425 C34.88557093880173 -17.913417480420037, 35.25031028245565 -17.751958192592653, 35.66385791279238 -17.568892924097174 C36.032900619869906 -17.376363580197967, 36.401943326947425 -17.183834236298758, 36.77211726407678 -16.990714730406097 C37.00402681332519 -16.850129798799927, 37.235936362573604 -16.709544867193753, 37.8410555736057 -16.342718045390892 C38.107049395136514 -16.15717227017795, 38.37304321666732 -15.971626494965005, 38.86628034457871 -15.627565626425154 C39.21034979027105 -15.353179399557991, 39.554419235963394 -15.078793172690828, 39.843578708501866 -14.848196188198123 C40.14311038088192 -14.576169448516326, 40.44264205326197 -14.304142708834531, 40.76893473676799 -14.007812326905688 C41.10760861590932 -13.658103741049672, 41.446282495050646 -13.308395155193656, 41.63854594296865 -13.10986736009568 C41.81221851744651 -12.905861671864548, 41.985891091924366 -12.701855983633417, 42.44883890812658 -12.158051136245305 C42.69976534454035 -11.821832571319476, 42.95069178095413 -11.485614006393646, 43.196483964640635 -11.156274872382312 C43.39167617067125 -10.856407227472966, 43.58686837670187 -10.55653958256362, 43.87840887860425 -10.108655082055241 C44.12220984827289 -9.67576177288337, 44.36601081794153 -9.242868463711497, 44.491811474273504 -9.019496659696287 C44.63549069036932 -8.721143693230584, 44.779169906465135 -8.42279072676488, 45.03417114880834 -7.893275190886684 C45.13000683376855 -7.656559196178046, 45.22584251872876 -7.419843201469408, 45.503259229970325 -6.734618561215508 C45.647309168087304 -6.300763098847968, 45.79135910620428 -5.866907636480429, 45.89714813421488 -5.548287939305138 C46.01632497776819 -5.093814983265627, 46.135501821321505 -4.639342027226116, 46.21421928754556 -4.339158212148133 C46.304735605024796 -3.8743760525227398, 46.39525192250402 -3.4095938928973464, 46.453169776581774 -3.1121979531509023 C46.50487806021249 -2.7111587162665978, 46.556586343843215 -2.3101194793822932, 46.61301770250937 -1.872449005199798 C46.63751538018105 -1.4908779012937943, 46.66201305785274 -1.1093067973877906, 46.69310621591342 -0.6250057626472757 C46.69310621591342 -0.35147006288209864, 46.69310621591342 -0.07793436311692159, 46.69310621591342 0.625005762647271 C46.66841386879304 1.0096090003509985, 46.64372152167266 1.3942122380547262, 46.61301770250937 1.8724490051997846 C46.5567049530126 2.309199570086549, 46.50039220351583 2.745950134973314, 46.453169776581774 3.1121979531508885 C46.37055173674247 3.5364241263968137, 46.28793369690317 3.9606502996427384, 46.21421928754556 4.339158212148129 C46.10955551340704 4.738286544504979, 46.004891739268515 5.13741487686183, 45.89714813421489 5.548287939305125 C45.79205824941744 5.86480192851575, 45.686968364619986 6.181315917726375, 45.503259229970325 6.734618561215495 C45.337233652329424 7.144704947874693, 45.17120807468853 7.554791334533893, 45.03417114880834 7.893275190886679 C44.8259401024667 8.32567141404574, 44.617709056125065 8.758067637204801, 44.491811474273504 9.019496659696284 C44.271577327906606 9.410544687696282, 44.05134318153971 9.80159271569628, 43.87840887860425 10.108655082055236 C43.6229506090028 10.50110758431337, 43.36749233940136 10.893560086571506, 43.19648396464064 11.156274872382301 C42.99681022595443 11.42381949157002, 42.79713648726821 11.691364110757737, 42.44883890812658 12.158051136245302 C42.26204170123811 12.37747376451868, 42.07524449434964 12.596896392792058, 41.63854594296866 13.10986736009567 C41.36885011960497 13.388350440157573, 41.099154296241274 13.666833520219477, 40.76893473676799 14.007812326905684 C40.45907236592258 14.289221133598415, 40.14920999507718 14.570629940291147, 39.84357870850189 14.848196188198111 C39.56132247090639 15.073288026526589, 39.27906623331089 15.298379864855066, 38.86628034457871 15.627565626425152 C38.62902559812872 15.793064266956225, 38.391770851678736 15.958562907487297, 37.84105557360571 16.34271804539089 C37.619068134966625 16.477288135236893, 37.397080696327535 16.611858225082898, 36.77211726407678 16.990714730406093 C36.43208291084018 17.168110434687232, 36.092048557603576 17.34550613896837, 35.66385791279239 17.56889292409717 C35.34327133133459 17.710807093845485, 35.022684749876795 17.852721263593796, 34.520831595147804 18.07487676824742 C34.23173950109017 18.181265331198652, 33.94264740703254 18.287653894149884, 33.34773525146062 18.506587066708033 C33.016690724460055 18.604839344633618, 32.6856461974595 18.703091622559203, 32.14938938623541 18.86224982926107 C31.867327912365965 18.926628520048638, 31.585266438496518 18.99100721083621, 30.930718259676766 19.140403561325773 C30.65425674559469 19.1850997149315, 30.377795231512618 19.229795868537227, 29.69672965284788 19.3399052695533 C29.255358706099123 19.382483793959924, 28.813987759350372 19.42506231836655, 28.4524942896239 19.45993515863156 C27.961998588206647 19.475664401084046, 27.471502886789395 19.49139364353653, 27.203125000000004 19.5 C27.203125000000004 19.5, 27.203125 19.5, 27.203125 19.5 C13.967323492186283 19.5, 0.7315219843725664 19.5, -27.203124999999996 19.5 C-27.5036309454609 19.490363359228407, -27.804136890921797 19.480726718456815, -28.452494289623893 19.45993515863156 C-28.811021765894118 19.425348444188145, -29.16954924216434 19.390761729744735, -29.69672965284787 19.3399052695533 C-29.94731427915754 19.299392690484353, -30.19789890546721 19.258880111415404, -30.93071825967676 19.140403561325773 C-31.416731348720255 19.029474245283396, -31.90274443776375 18.91854492924102, -32.149389386235384 18.862249829261074 C-32.44329796186029 18.7750193067732, -32.73720653748519 18.687788784285324, -33.34773525146059 18.506587066708043 C-33.81151802464465 18.335910719015352, -34.275300797828706 18.16523437132266, -34.5208315951478 18.074876768247425 C-34.90241749455532 17.90596000992324, -35.28400339396285 17.737043251599058, -35.66385791279238 17.568892924097174 C-35.98149458475052 17.40318207579261, -36.29913125670866 17.237471227488047, -36.77211726407678 16.990714730406097 C-37.014752545844686 16.843627796715207, -37.2573878276126 16.696540863024314, -37.841055573605686 16.3427180453909 C-38.25030205460467 16.057245416240644, -38.65954853560365 15.771772787090386, -38.86628034457871 15.627565626425156 C-39.17066756832333 15.384824915573027, -39.47505479206795 15.142084204720899, -39.843578708501866 14.848196188198125 C-40.08255177138018 14.631167175372802, -40.3215248342585 14.414138162547477, -40.768934736767974 14.007812326905697 C-41.073800863380946 13.693013021203313, -41.378666989993924 13.37821371550093, -41.638545942968655 13.109867360095677 C-41.90297074668734 12.799258939450137, -42.16739555040603 12.488650518804596, -42.448838908126575 12.158051136245307 C-42.729976044012076 11.781352986278709, -43.01111317989758 11.40465483631211, -43.196483964640635 11.156274872382316 C-43.38069759194029 10.873273272564903, -43.564911219239946 10.59027167274749, -43.87840887860425 10.108655082055249 C-44.09305433964938 9.727530330759803, -44.30769980069451 9.346405579464358, -44.491811474273504 9.019496659696289 C-44.66132477699523 8.667498659590974, -44.83083807971696 8.315500659485659, -45.03417114880834 7.893275190886686 C-45.160851881180726 7.580371332721546, -45.28753261355312 7.267467474556405, -45.503259229970325 6.73461856121551 C-45.62294610335202 6.374140768103414, -45.742632976733724 6.013662974991319, -45.89714813421488 5.5482879393051325 C-45.996893419826776 5.167915935386729, -46.09663870543868 4.787543931468325, -46.21421928754556 4.339158212148136 C-46.30469759429852 3.874571229568595, -46.39517590105147 3.4099842469890542, -46.453169776581774 3.112197953150904 C-46.50415869712205 2.7167379543417556, -46.55514761766233 2.321277955532607, -46.61301770250937 1.872449005199809 C-46.641094982006315 1.4351227134627271, -46.66917226150327 0.9977964217256451, -46.69310621591342 0.6250057626472781 C-46.69310621591342 0.3008318576748105, -46.69310621591342 -0.023342047297657098, -46.69310621591342 -0.6250057626472687 C-46.67235985365884 -0.9481471009245366, -46.651613491404255 -1.2712884392018045, -46.61301770250937 -1.8724490051997822 C-46.561782951009434 -2.2698156203872224, -46.5105481995095 -2.667182235574663, -46.453169776581774 -3.112197953150895 C-46.35799071767783 -3.6009223045214376, -46.262811658773884 -4.08964665589198, -46.21421928754556 -4.339158212148126 C-46.15061822399076 -4.581696632357888, -46.08701716043596 -4.82423505256765, -45.89714813421489 -5.548287939305123 C-45.80737000361458 -5.818685364470687, -45.71759187301427 -6.08908278963625, -45.50325922997033 -6.734618561215485 C-45.36571052419481 -7.074366523804343, -45.22816181841928 -7.414114486393201, -45.03417114880834 -7.893275190886676 C-44.84689518549848 -8.282157735763288, -44.65961922218863 -8.671040280639902, -44.491811474273504 -9.019496659696282 C-44.26626950204474 -9.419969269989668, -44.04072752981598 -9.820441880283056, -43.87840887860425 -10.108655082055243 C-43.675132219848905 -10.420942617329287, -43.47185556109356 -10.733230152603328, -43.19648396464064 -11.156274872382308 C-43.03164362176868 -11.377145914566572, -42.86680327889671 -11.598016956750836, -42.44883890812659 -12.158051136245302 C-42.21942763314423 -12.427530673710926, -41.99001635816187 -12.697010211176552, -41.63854594296866 -13.10986736009567 C-41.42420580916458 -13.33119114590064, -41.2098656753605 -13.55251493170561, -40.768934736767996 -14.007812326905677 C-40.4055529167537 -14.337826081286568, -40.042171096739395 -14.667839835667458, -39.84357870850189 -14.848196188198107 C-39.59648290844212 -15.045248513250378, -39.34938710838236 -15.242300838302649, -38.86628034457872 -15.627565626425149 C-38.50350474712099 -15.880622178909155, -38.140729149663265 -16.13367873139316, -37.841055573605715 -16.342718045390885 C-37.58898837055275 -16.4955226651929, -37.33692116749978 -16.648327284994917, -36.77211726407679 -16.99071473040609 C-36.41237517536613 -17.178391947660636, -36.05263308665547 -17.36606916491518, -35.66385791279239 -17.56889292409717 C-35.36549006266055 -17.70097152058273, -35.0671222125287 -17.833050117068293, -34.520831595147804 -18.07487676824742 C-34.23491124341622 -18.1800981007034, -33.94899089168464 -18.285319433159383, -33.34773525146062 -18.506587066708033 C-33.022348354700554 -18.603160189675744, -32.69696145794049 -18.699733312643456, -32.14938938623541 -18.862249829261067 C-31.675771355645498 -18.97035005409673, -31.202153325055583 -19.078450278932394, -30.930718259676766 -19.140403561325773 C-30.47636369742396 -19.213860083378552, -30.022009135171153 -19.287316605431332, -29.696729652847882 -19.3399052695533 C-29.39359401867749 -19.369148399607777, -29.0904583845071 -19.398391529662256, -28.452494289623903 -19.45993515863156 C-28.15500144738105 -19.4694751750476, -27.8575086051382 -19.479015191463635, -27.203125000000007 -19.5 C-27.203125000000004 -19.5, -27.203125000000004 -19.5, -27.203125 -19.5" stroke="none" stroke-width="0" fill="#ECECFF" style=""/><path d="M-27.203125 -19.5 C-14.650411457738848 -19.5, -2.0976979154776956 -19.5, 27.203125 -19.5 M-27.203125 -19.5 C-14.829557697046626 -19.5, -2.455990394093252 -19.5, 27.203125 -19.5 M27.203125 -19.5 C27.203125 -19.5, 27.203125 -19.5, 27.203125 -19.5 M27.203125 -19.5 C27.203125 -19.5, 27.203125 -19.5, 27.203125 -19.5 M27.203125 -19.5 C27.52134418130592 -19.48979533023158, 27.83956336261184 -19.47959066046316, 28.4524942896239 -19.45993515863156 M27.203125 -19.5 C27.614490427650615 -19.486808311409476, 28.02585585530123 -19.473616622818952, 28.4524942896239 -19.45993515863156 M28.4524942896239 -19.45993515863156 C28.794489019971433 -19.426943338303772, 29.136483750318966 -19.393951517975985, 29.696729652847864 -19.3399052695533 M28.4524942896239 -19.45993515863156 C28.792054107677725 -19.427178231364337, 29.131613925731546 -19.39442130409711, 29.696729652847864 -19.3399052695533 M29.696729652847864 -19.3399052695533 C30.143549137914146 -19.26766696034464, 30.590368622980428 -19.195428651135984, 30.93071825967676 -19.140403561325776 M29.696729652847864 -19.3399052695533 C30.164936434284126 -19.264209228128504, 30.633143215720384 -19.18851318670371, 30.93071825967676 -19.140403561325776 M30.93071825967676 -19.140403561325776 C31.24335570616737 -19.069046104314292, 31.55599315265798 -18.997688647302812, 32.14938938623539 -18.862249829261074 M30.93071825967676 -19.140403561325776 C31.293516715802774 -19.057597181196194, 31.65631517192879 -18.974790801066607, 32.14938938623539 -18.862249829261074 M32.14938938623539 -18.862249829261074 C32.56763924581954 -18.73811546637481, 32.98588910540369 -18.61398110348855, 33.347735251460605 -18.50658706670804 M32.14938938623539 -18.862249829261074 C32.60871119475463 -18.725925527521937, 33.06803300327387 -18.5896012257828, 33.347735251460605 -18.50658706670804 M33.347735251460605 -18.50658706670804 C33.72742371976735 -18.366858200569432, 34.1071121880741 -18.22712933443082, 34.5208315951478 -18.074876768247425 M33.347735251460605 -18.50658706670804 C33.5924312902598 -18.41653666248455, 33.837127329058994 -18.32648625826106, 34.5208315951478 -18.074876768247425 M34.5208315951478 -18.074876768247425 C34.92927281155907 -17.894071957720357, 35.33771402797035 -17.713267147193285, 35.66385791279238 -17.568892924097174 M34.5208315951478 -18.074876768247425 C34.78334627087759 -17.95866930852302, 35.04586094660738 -17.842461848798617, 35.66385791279238 -17.568892924097174 M35.66385791279238 -17.568892924097174 C35.967531110163776 -17.41046681154048, 36.27120430753518 -17.25204069898379, 36.77211726407678 -16.990714730406097 M35.66385791279238 -17.568892924097174 C35.95894784857023 -17.414944693615993, 36.25403778434809 -17.260996463134813, 36.77211726407678 -16.990714730406097 M36.77211726407678 -16.990714730406097 C37.005202095474125 -16.84941733585452, 37.23828692687146 -16.708119941302943, 37.8410555736057 -16.342718045390892 M36.77211726407678 -16.990714730406097 C37.12124696842063 -16.779070251918977, 37.47037667276447 -16.56742577343186, 37.8410555736057 -16.342718045390892 M37.8410555736057 -16.342718045390892 C38.1107562524069 -16.154586527013393, 38.380456931208094 -15.96645500863589, 38.86628034457871 -15.627565626425154 M37.8410555736057 -16.342718045390892 C38.24807486874041 -16.05879900468623, 38.65509416387511 -15.774879963981567, 38.86628034457871 -15.627565626425154 M38.86628034457871 -15.627565626425154 C39.1519372107935 -15.39976187726732, 39.437594077008285 -15.171958128109486, 39.843578708501866 -14.848196188198123 M38.86628034457871 -15.627565626425154 C39.07137999326042 -15.464004114532358, 39.27647964194213 -15.300442602639563, 39.843578708501866 -14.848196188198123 M39.843578708501866 -14.848196188198123 C40.1547543216837 -14.56559472956194, 40.465929934865535 -14.28299327092576, 40.76893473676799 -14.007812326905688 M39.843578708501866 -14.848196188198123 C40.046200629419 -14.664180320703435, 40.24882255033613 -14.480164453208749, 40.76893473676799 -14.007812326905688 M40.76893473676799 -14.007812326905688 C41.0276485117515 -13.740669113439262, 41.286362286735006 -13.473525899972836, 41.63854594296865 -13.10986736009568 M40.76893473676799 -14.007812326905688 C41.108267297781374 -13.657423597937985, 41.44759985879476 -13.307034868970282, 41.63854594296865 -13.10986736009568 M41.63854594296865 -13.10986736009568 C41.831718968874554 -12.882955332010045, 42.02489199478046 -12.65604330392441, 42.44883890812658 -12.158051136245305 M41.63854594296865 -13.10986736009568 C41.83182601858875 -12.882829585324451, 42.025106094208844 -12.655791810553223, 42.44883890812658 -12.158051136245305 M42.44883890812658 -12.158051136245305 C42.6853775228648 -11.841110941607202, 42.92191613760302 -11.5241707469691, 43.196483964640635 -11.156274872382312 M42.44883890812658 -12.158051136245305 C42.67301060142682 -11.857681489684383, 42.897182294727045 -11.55731184312346, 43.196483964640635 -11.156274872382312 M43.196483964640635 -11.156274872382312 C43.46051606593606 -10.750650662246041, 43.7245481672315 -10.34502645210977, 43.87840887860425 -10.108655082055241 M43.196483964640635 -11.156274872382312 C43.441129282705816 -10.780433967367925, 43.68577460077099 -10.404593062353538, 43.87840887860425 -10.108655082055241 M43.87840887860425 -10.108655082055241 C44.07946201687235 -9.75166487622235, 44.28051515514044 -9.394674670389458, 44.491811474273504 -9.019496659696287 M43.87840887860425 -10.108655082055241 C44.04694476714502 -9.8094025458418, 44.215480655685795 -9.510150009628362, 44.491811474273504 -9.019496659696287 M44.491811474273504 -9.019496659696287 C44.70732097499318 -8.571986570287253, 44.92283047571286 -8.124476480878219, 45.03417114880834 -7.893275190886684 M44.491811474273504 -9.019496659696287 C44.653766559938646 -8.683193459028914, 44.81572164560379 -8.346890258361539, 45.03417114880834 -7.893275190886684 M45.03417114880834 -7.893275190886684 C45.20203141306896 -7.47865709280553, 45.369891677329576 -7.064038994724375, 45.503259229970325 -6.734618561215508 M45.03417114880834 -7.893275190886684 C45.21535790470289 -7.445740400819525, 45.39654466059744 -6.998205610752365, 45.503259229970325 -6.734618561215508 M45.503259229970325 -6.734618561215508 C45.63781971966367 -6.329343805561672, 45.77238020935702 -5.924069049907837, 45.89714813421488 -5.548287939305138 M45.503259229970325 -6.734618561215508 C45.60802820693355 -6.419071095271855, 45.71279718389677 -6.103523629328201, 45.89714813421488 -5.548287939305138 M45.89714813421488 -5.548287939305138 C45.98007585664267 -5.232048592585723, 46.06300357907046 -4.915809245866308, 46.21421928754556 -4.339158212148133 M45.89714813421488 -5.548287939305138 C46.00160095206414 -5.14996407470831, 46.10605376991339 -4.751640210111484, 46.21421928754556 -4.339158212148133 M46.21421928754556 -4.339158212148133 C46.28155278827078 -3.9934149168645368, 46.348886288996 -3.6476716215809404, 46.453169776581774 -3.1121979531509023 M46.21421928754556 -4.339158212148133 C46.28309423502511 -3.985499913565957, 46.351969182504654 -3.6318416149837813, 46.453169776581774 -3.1121979531509023 M46.453169776581774 -3.1121979531509023 C46.50122383827565 -2.739500140001015, 46.549277899969525 -2.366802326851127, 46.61301770250937 -1.872449005199798 M46.453169776581774 -3.1121979531509023 C46.51270904187326 -2.6504231689079183, 46.57224830716475 -2.1886483846649343, 46.61301770250937 -1.872449005199798 M46.61301770250937 -1.872449005199798 C46.641423889869145 -1.429999708009497, 46.66983007722892 -0.987550410819196, 46.69310621591342 -0.6250057626472757 M46.61301770250937 -1.872449005199798 C46.63923526962881 -1.4640892348751853, 46.66545283674826 -1.0557294645505726, 46.69310621591342 -0.6250057626472757 M46.69310621591342 -0.6250057626472757 C46.69310621591342 -0.21425921330109648, 46.69310621591342 0.19648733604508273, 46.69310621591342 0.625005762647271 M46.69310621591342 -0.6250057626472757 C46.69310621591342 -0.2259475314199511, 46.69310621591342 0.17311069980737348, 46.69310621591342 0.625005762647271 M46.69310621591342 0.625005762647271 C46.67596642906151 0.8919717778526473, 46.658826642209604 1.1589377930580234, 46.61301770250937 1.8724490051997846 M46.69310621591342 0.625005762647271 C46.67532271620957 0.9019981251172913, 46.65753921650572 1.1789904875873114, 46.61301770250937 1.8724490051997846 M46.61301770250937 1.8724490051997846 C46.554883137399024 2.3233292122272355, 46.49674857228868 2.774209419254686, 46.453169776581774 3.1121979531508885 M46.61301770250937 1.8724490051997846 C46.559079334492225 2.290784336205211, 46.50514096647508 2.7091196672106372, 46.453169776581774 3.1121979531508885 M46.453169776581774 3.1121979531508885 C46.381000950521056 3.482769622085911, 46.30883212446033 3.8533412910209335, 46.21421928754556 4.339158212148129 M46.453169776581774 3.1121979531508885 C46.40092048849109 3.380487004605614, 46.3486712004004 3.6487760560603393, 46.21421928754556 4.339158212148129 M46.21421928754556 4.339158212148129 C46.13944324959075 4.624311653009676, 46.06466721163594 4.909465093871224, 45.89714813421489 5.548287939305125 M46.21421928754556 4.339158212148129 C46.12612071078285 4.675116267509058, 46.03802213402013 5.0110743228699866, 45.89714813421489 5.548287939305125 M45.89714813421489 5.548287939305125 C45.74588368855384 6.003872348919728, 45.59461924289278 6.45945675853433, 45.503259229970325 6.734618561215495 M45.89714813421489 5.548287939305125 C45.79956099068901 5.84220486720525, 45.70197384716314 6.136121795105375, 45.503259229970325 6.734618561215495 M45.503259229970325 6.734618561215495 C45.332616146003616 7.156110277772863, 45.1619730620369 7.577601994330232, 45.03417114880834 7.893275190886679 M45.503259229970325 6.734618561215495 C45.346609460225395 7.121546521102733, 45.18995969048047 7.508474480989971, 45.03417114880834 7.893275190886679 M45.03417114880834 7.893275190886679 C44.90936433577286 8.152439208592863, 44.78455752273737 8.411603226299048, 44.491811474273504 9.019496659696284 M45.03417114880834 7.893275190886679 C44.8438287809607 8.288525190396557, 44.65348641311305 8.683775189906434, 44.491811474273504 9.019496659696284 M44.491811474273504 9.019496659696284 C44.285620658827135 9.385609331605423, 44.079429843380765 9.751722003514562, 43.87840887860425 10.108655082055236 M44.491811474273504 9.019496659696284 C44.363985582884006 9.246464473633417, 44.23615969149451 9.473432287570548, 43.87840887860425 10.108655082055236 M43.87840887860425 10.108655082055236 C43.69129000108946 10.396119926372007, 43.50417112357468 10.683584770688778, 43.19648396464064 11.156274872382301 M43.87840887860425 10.108655082055236 C43.63368860813872 10.484611134084098, 43.38896833767319 10.86056718611296, 43.19648396464064 11.156274872382301 M43.19648396464064 11.156274872382301 C43.024459214140364 11.386772366275501, 42.852434463640094 11.617269860168701, 42.44883890812658 12.158051136245302 M43.19648396464064 11.156274872382301 C42.998574098068886 11.421456063628698, 42.80066423149713 11.686637254875095, 42.44883890812658 12.158051136245302 M42.44883890812658 12.158051136245302 C42.1549083945406 12.503318642623423, 41.860977880954614 12.848586149001544, 41.63854594296866 13.10986736009567 M42.44883890812658 12.158051136245302 C42.23460506726392 12.409702395973465, 42.02037122640126 12.661353655701628, 41.63854594296866 13.10986736009567 M41.63854594296866 13.10986736009567 C41.301075878001754 13.458332908981614, 40.96360581303484 13.806798457867558, 40.76893473676799 14.007812326905684 M41.63854594296866 13.10986736009567 C41.363223100396404 13.394160799477284, 41.08790025782415 13.678454238858897, 40.76893473676799 14.007812326905684 M40.76893473676799 14.007812326905684 C40.514655702220146 14.238741818227455, 40.260376667672304 14.469671309549225, 39.84357870850189 14.848196188198111 M40.76893473676799 14.007812326905684 C40.448968135024124 14.298397528757096, 40.12900153328026 14.588982730608508, 39.84357870850189 14.848196188198111 M39.84357870850189 14.848196188198111 C39.525093450015525 15.10217970659232, 39.206608191529156 15.35616322498653, 38.86628034457871 15.627565626425152 M39.84357870850189 14.848196188198111 C39.60437816794778 15.0389522538963, 39.36517762739366 15.22970831959449, 38.86628034457871 15.627565626425152 M38.86628034457871 15.627565626425152 C38.631694031119125 15.791202883616721, 38.397107717659544 15.95484014080829, 37.84105557360571 16.34271804539089 M38.86628034457871 15.627565626425152 C38.46857810732141 15.904985490883474, 38.07087587006411 16.182405355341796, 37.84105557360571 16.34271804539089 M37.84105557360571 16.34271804539089 C37.5322172958975 16.529937624272776, 37.223379018189306 16.71715720315466, 36.77211726407678 16.990714730406093 M37.84105557360571 16.34271804539089 C37.5814500312022 16.500092450807404, 37.32184448879869 16.657466856223916, 36.77211726407678 16.990714730406093 M36.77211726407678 16.990714730406093 C36.5033572948719 17.130926634191308, 36.23459732566701 17.271138537976523, 35.66385791279239 17.56889292409717 M36.77211726407678 16.990714730406093 C36.4176960260018 17.175616063292175, 36.063274787926815 17.36051739617826, 35.66385791279239 17.56889292409717 M35.66385791279239 17.56889292409717 C35.405199240660714 17.683393445412968, 35.14654056852905 17.79789396672877, 34.520831595147804 18.07487676824742 M35.66385791279239 17.56889292409717 C35.27987964757324 17.73886871179915, 34.89590138235409 17.908844499501125, 34.520831595147804 18.07487676824742 M34.520831595147804 18.07487676824742 C34.102754032289674 18.22873317604584, 33.684676469431544 18.382589583844254, 33.34773525146062 18.506587066708033 M34.520831595147804 18.07487676824742 C34.14371579722747 18.213658867902325, 33.76659999930713 18.352440967557232, 33.34773525146062 18.506587066708033 M33.34773525146062 18.506587066708033 C33.00210511798854 18.609168276072953, 32.656474984516464 18.711749485437874, 32.14938938623541 18.86224982926107 M33.34773525146062 18.506587066708033 C33.08163279014457 18.585564880426315, 32.815530328828515 18.664542694144597, 32.14938938623541 18.86224982926107 M32.14938938623541 18.86224982926107 C31.893239667509132 18.920714331027217, 31.63708994878285 18.979178832793362, 30.930718259676766 19.140403561325773 M32.14938938623541 18.86224982926107 C31.881708083040742 18.923346339931506, 31.61402677984607 18.98444285060194, 30.930718259676766 19.140403561325773 M30.930718259676766 19.140403561325773 C30.659245450072326 19.184293179879536, 30.38777264046789 19.228182798433302, 29.69672965284788 19.3399052695533 M30.930718259676766 19.140403561325773 C30.56532405301921 19.199477662983774, 30.199929846361655 19.258551764641773, 29.69672965284788 19.3399052695533 M29.69672965284788 19.3399052695533 C29.287491947092573 19.379383938847162, 28.878254241337263 19.41886260814103, 28.4524942896239 19.45993515863156 M29.69672965284788 19.3399052695533 C29.41225017086913 19.367348663043156, 29.12777068889038 19.39479205653301, 28.4524942896239 19.45993515863156 M28.4524942896239 19.45993515863156 C28.122205834791195 19.470526866510568, 27.791917379958488 19.481118574389576, 27.203125000000004 19.5 M28.4524942896239 19.45993515863156 C27.989857393252585 19.474771023430097, 27.52722049688127 19.489606888228632, 27.203125000000004 19.5 M27.203125000000004 19.5 C27.203125000000004 19.5, 27.203125 19.5, 27.203125 19.5 M27.203125000000004 19.5 C27.203125000000004 19.5, 27.203125000000004 19.5, 27.203125 19.5 M27.203125 19.5 C7.554191237346423 19.5, -12.094742525307154 19.5, -27.203124999999996 19.5 M27.203125 19.5 C10.802851988219913 19.5, -5.597421023560173 19.5, -27.203124999999996 19.5 M-27.203124999999996 19.5 C-27.569458881866023 19.4882523854342, -27.935792763732046 19.476504770868402, -28.452494289623893 19.45993515863156 M-27.203124999999996 19.5 C-27.62382378511221 19.48650900880196, -28.044522570224427 19.47301801760392, -28.452494289623893 19.45993515863156 M-28.452494289623893 19.45993515863156 C-28.857965169406835 19.42081987050898, -29.263436049189778 19.381704582386394, -29.69672965284787 19.3399052695533 M-28.452494289623893 19.45993515863156 C-28.757690469959222 19.43049325016672, -29.06288665029455 19.401051341701876, -29.69672965284787 19.3399052695533 M-29.69672965284787 19.3399052695533 C-30.103105004052434 19.27420565425846, -30.509480355257 19.208506038963623, -30.93071825967676 19.140403561325773 M-29.69672965284787 19.3399052695533 C-30.047126024850336 19.28325590149239, -30.397522396852796 19.22660653343148, -30.93071825967676 19.140403561325773 M-30.93071825967676 19.140403561325773 C-31.228850101279455 19.07235691397204, -31.526981942882152 19.004310266618305, -32.149389386235384 18.862249829261074 M-30.93071825967676 19.140403561325773 C-31.33265813421533 19.04866340786515, -31.734598008753903 18.956923254404526, -32.149389386235384 18.862249829261074 M-32.149389386235384 18.862249829261074 C-32.62175856535094 18.722053136415997, -33.09412774446649 18.581856443570924, -33.34773525146059 18.506587066708043 M-32.149389386235384 18.862249829261074 C-32.58233790618612 18.733752981132852, -33.01528642613685 18.605256133004634, -33.34773525146059 18.506587066708043 M-33.34773525146059 18.506587066708043 C-33.642493494494985 18.398113308556056, -33.93725173752938 18.28963955040407, -34.5208315951478 18.074876768247425 M-33.34773525146059 18.506587066708043 C-33.609127473994874 18.41039231253221, -33.87051969652916 18.314197558356376, -34.5208315951478 18.074876768247425 M-34.5208315951478 18.074876768247425 C-34.78603639944517 17.95747846840598, -35.05124120374255 17.840080168564533, -35.66385791279238 17.568892924097174 M-34.5208315951478 18.074876768247425 C-34.833938554434496 17.936273605359148, -35.147045513721196 17.79767044247087, -35.66385791279238 17.568892924097174 M-35.66385791279238 17.568892924097174 C-36.042896223250324 17.37114888031689, -36.42193453370827 17.173404836536605, -36.77211726407678 16.990714730406097 M-35.66385791279238 17.568892924097174 C-36.015290699524016 17.385550664362725, -36.366723486255644 17.202208404628276, -36.77211726407678 16.990714730406097 M-36.77211726407678 16.990714730406097 C-37.00141137019066 16.85171529579813, -37.230705476304536 16.712715861190162, -37.841055573605686 16.3427180453909 M-36.77211726407678 16.990714730406097 C-37.076586738086164 16.806143546000374, -37.38105621209555 16.62157236159465, -37.841055573605686 16.3427180453909 M-37.841055573605686 16.3427180453909 C-38.164275958602246 16.117253496802256, -38.48749634359881 15.891788948213613, -38.86628034457871 15.627565626425156 M-37.841055573605686 16.3427180453909 C-38.08750162947046 16.170807945297444, -38.33394768533524 15.998897845203992, -38.86628034457871 15.627565626425156 M-38.86628034457871 15.627565626425156 C-39.133489572084024 15.414473378225843, -39.40069879958934 15.20138113002653, -39.843578708501866 14.848196188198125 M-38.86628034457871 15.627565626425156 C-39.23060465635768 15.337026682858532, -39.59492896813665 15.046487739291907, -39.843578708501866 14.848196188198125 M-39.843578708501866 14.848196188198125 C-40.100439287210506 14.614922206773432, -40.357299865919146 14.38164822534874, -40.768934736767974 14.007812326905697 M-39.843578708501866 14.848196188198125 C-40.14368660451829 14.575646137455823, -40.4437945005347 14.30309608671352, -40.768934736767974 14.007812326905697 M-40.768934736767974 14.007812326905697 C-41.07454655128697 13.692243037218228, -41.38015836580597 13.376673747530761, -41.638545942968655 13.109867360095677 M-40.768934736767974 14.007812326905697 C-41.0697925511434 13.697151932677139, -41.37065036551882 13.386491538448581, -41.638545942968655 13.109867360095677 M-41.638545942968655 13.109867360095677 C-41.829977541342615 12.885000911879098, -42.021409139716575 12.660134463662517, -42.448838908126575 12.158051136245307 M-41.638545942968655 13.109867360095677 C-41.83078148198844 12.884056557450995, -42.02301702100822 12.65824575480631, -42.448838908126575 12.158051136245307 M-42.448838908126575 12.158051136245307 C-42.6896522104731 11.835383249644128, -42.93046551281962 11.51271536304295, -43.196483964640635 11.156274872382316 M-42.448838908126575 12.158051136245307 C-42.59906653468108 11.956759802680597, -42.74929416123559 11.755468469115888, -43.196483964640635 11.156274872382316 M-43.196483964640635 11.156274872382316 C-43.43463107240156 10.790416963409061, -43.672778180162474 10.424559054435807, -43.87840887860425 10.108655082055249 M-43.196483964640635 11.156274872382316 C-43.38779877670025 10.862363945838505, -43.57911358875986 10.568453019294694, -43.87840887860425 10.108655082055249 M-43.87840887860425 10.108655082055249 C-44.09758083132432 9.71949308643395, -44.316752784044404 9.33033109081265, -44.491811474273504 9.019496659696289 M-43.87840887860425 10.108655082055249 C-44.091282496893186 9.730676416991953, -44.30415611518213 9.352697751928655, -44.491811474273504 9.019496659696289 M-44.491811474273504 9.019496659696289 C-44.608656656818546 8.776865138055106, -44.72550183936359 8.534233616413923, -45.03417114880834 7.893275190886686 M-44.491811474273504 9.019496659696289 C-44.62371148927138 8.745603456344988, -44.755611504269254 8.471710252993686, -45.03417114880834 7.893275190886686 M-45.03417114880834 7.893275190886686 C-45.15037781285871 7.606242483979267, -45.26658447690908 7.319209777071849, -45.503259229970325 6.73461856121551 M-45.03417114880834 7.893275190886686 C-45.133987175027485 7.646727676313808, -45.23380320124664 7.40018016174093, -45.503259229970325 6.73461856121551 M-45.503259229970325 6.73461856121551 C-45.639557750374394 6.324109133978556, -45.77585627077846 5.913599706741603, -45.89714813421488 5.5482879393051325 M-45.503259229970325 6.73461856121551 C-45.63652114280346 6.333254912164491, -45.7697830556366 5.931891263113471, -45.89714813421488 5.5482879393051325 M-45.89714813421488 5.5482879393051325 C-45.97608221099705 5.247278094289447, -46.05501628777922 4.946268249273762, -46.21421928754556 4.339158212148136 M-45.89714813421488 5.5482879393051325 C-45.97820525799381 5.239181995956433, -46.059262381772726 4.930076052607735, -46.21421928754556 4.339158212148136 M-46.21421928754556 4.339158212148136 C-46.26926301326703 4.056520314063955, -46.32430673898849 3.7738824159797737, -46.453169776581774 3.112197953150904 M-46.21421928754556 4.339158212148136 C-46.291223462180874 3.9437580502338734, -46.36822763681619 3.548357888319611, -46.453169776581774 3.112197953150904 M-46.453169776581774 3.112197953150904 C-46.51486870170292 2.633673273742124, -46.57656762682407 2.155148594333344, -46.61301770250937 1.872449005199809 M-46.453169776581774 3.112197953150904 C-46.50358056684292 2.721221818621962, -46.55399135710407 2.3302456840930206, -46.61301770250937 1.872449005199809 M-46.61301770250937 1.872449005199809 C-46.6332944999478 1.5566215179599403, -46.65357129738623 1.2407940307200716, -46.69310621591342 0.6250057626472781 M-46.61301770250937 1.872449005199809 C-46.644191579536155 1.3868907074069763, -46.67536545656294 0.9013324096141433, -46.69310621591342 0.6250057626472781 M-46.69310621591342 0.6250057626472781 C-46.69310621591342 0.3206461951863981, -46.69310621591342 0.016286627725518033, -46.69310621591342 -0.6250057626472687 M-46.69310621591342 0.6250057626472781 C-46.69310621591342 0.23166212790410928, -46.69310621591342 -0.16168150683905957, -46.69310621591342 -0.6250057626472687 M-46.69310621591342 -0.6250057626472687 C-46.673708838379866 -0.9271355750136454, -46.654311460846316 -1.2292653873800221, -46.61301770250937 -1.8724490051997822 M-46.69310621591342 -0.6250057626472687 C-46.672063414906034 -0.9527643737804884, -46.65102061389865 -1.280522984913708, -46.61301770250937 -1.8724490051997822 M-46.61301770250937 -1.8724490051997822 C-46.57487640938836 -2.1682653427960803, -46.53673511626735 -2.4640816803923786, -46.453169776581774 -3.112197953150895 M-46.61301770250937 -1.8724490051997822 C-46.54959014388321 -2.3643806247160963, -46.486162585257055 -2.8563122442324107, -46.453169776581774 -3.112197953150895 M-46.453169776581774 -3.112197953150895 C-46.38777424522622 -3.4479901853112307, -46.32237871387066 -3.7837824174715657, -46.21421928754556 -4.339158212148126 M-46.453169776581774 -3.112197953150895 C-46.36561239980074 -3.561786577663394, -46.2780550230197 -4.011375202175893, -46.21421928754556 -4.339158212148126 M-46.21421928754556 -4.339158212148126 C-46.120475699908205 -4.696643140537262, -46.02673211227084 -5.0541280689263965, -45.89714813421489 -5.548287939305123 M-46.21421928754556 -4.339158212148126 C-46.11853682279031 -4.704036919302445, -46.02285435803506 -5.068915626456764, -45.89714813421489 -5.548287939305123 M-45.89714813421489 -5.548287939305123 C-45.76008551209687 -5.961098719161412, -45.62302288997885 -6.3739094990177, -45.50325922997033 -6.734618561215485 M-45.89714813421489 -5.548287939305123 C-45.79455258796088 -5.85728937824177, -45.69195704170688 -6.166290817178417, -45.50325922997033 -6.734618561215485 M-45.50325922997033 -6.734618561215485 C-45.40107953492882 -6.9870043834780295, -45.298899839887305 -7.239390205740574, -45.03417114880834 -7.893275190886676 M-45.50325922997033 -6.734618561215485 C-45.36300120786068 -7.081058587530721, -45.222743185751014 -7.427498613845956, -45.03417114880834 -7.893275190886676 M-45.03417114880834 -7.893275190886676 C-44.88955456825836 -8.193574614697832, -44.74493798770839 -8.493874038508988, -44.491811474273504 -9.019496659696282 M-45.03417114880834 -7.893275190886676 C-44.88306439835134 -8.207051591377164, -44.73195764789433 -8.52082799186765, -44.491811474273504 -9.019496659696282 M-44.491811474273504 -9.019496659696282 C-44.290086697499696 -9.377679427706843, -44.08836192072588 -9.735862195717402, -43.87840887860425 -10.108655082055243 M-44.491811474273504 -9.019496659696282 C-44.25313959730723 -9.443282745398148, -44.01446772034096 -9.867068831100013, -43.87840887860425 -10.108655082055243 M-43.87840887860425 -10.108655082055243 C-43.70068881710666 -10.38168082103411, -43.52296875560908 -10.654706560012976, -43.19648396464064 -11.156274872382308 M-43.87840887860425 -10.108655082055243 C-43.639001450660125 -10.476449181273257, -43.399594022716 -10.84424328049127, -43.19648396464064 -11.156274872382308 M-43.19648396464064 -11.156274872382308 C-42.941319327460484 -11.498172240227056, -42.68615469028033 -11.840069608071804, -42.44883890812659 -12.158051136245302 M-43.19648396464064 -11.156274872382308 C-42.93343277399175 -11.508739503395368, -42.670381583342845 -11.861204134408428, -42.44883890812659 -12.158051136245302 M-42.44883890812659 -12.158051136245302 C-42.236990518950684 -12.40690030868615, -42.02514212977478 -12.655749481127001, -41.63854594296866 -13.10986736009567 M-42.44883890812659 -12.158051136245302 C-42.16047243116706 -12.496782808599335, -41.872105954207534 -12.835514480953368, -41.63854594296866 -13.10986736009567 M-41.63854594296866 -13.10986736009567 C-41.4006773484645 -13.355486213296022, -41.16280875396034 -13.601105066496372, -40.768934736767996 -14.007812326905677 M-41.63854594296866 -13.10986736009567 C-41.31242322425435 -13.44661584234135, -40.986300505540044 -13.783364324587028, -40.768934736767996 -14.007812326905677 M-40.768934736767996 -14.007812326905677 C-40.44738559313917 -14.299834751425246, -40.125836449510345 -14.591857175944815, -39.84357870850189 -14.848196188198107 M-40.768934736767996 -14.007812326905677 C-40.47415831101213 -14.275520477420319, -40.17938188525627 -14.543228627934962, -39.84357870850189 -14.848196188198107 M-39.84357870850189 -14.848196188198107 C-39.569161283567205 -15.067036782029154, -39.294743858632515 -15.285877375860201, -38.86628034457872 -15.627565626425149 M-39.84357870850189 -14.848196188198107 C-39.63181302912432 -15.017073682180325, -39.420047349746746 -15.185951176162542, -38.86628034457872 -15.627565626425149 M-38.86628034457872 -15.627565626425149 C-38.606933750750365 -15.808474583346708, -38.34758715692201 -15.989383540268268, -37.841055573605715 -16.342718045390885 M-38.86628034457872 -15.627565626425149 C-38.5897108046354 -15.820488564987187, -38.313141264692085 -16.013411503549225, -37.841055573605715 -16.342718045390885 M-37.841055573605715 -16.342718045390885 C-37.46343241757076 -16.571635421739263, -37.0858092615358 -16.80055279808764, -36.77211726407679 -16.99071473040609 M-37.841055573605715 -16.342718045390885 C-37.42565501382761 -16.594536305893026, -37.01025445404951 -16.846354566395163, -36.77211726407679 -16.99071473040609 M-36.77211726407679 -16.99071473040609 C-36.34172417349655 -17.21525053008187, -35.911331082916305 -17.439786329757652, -35.66385791279239 -17.56889292409717 M-36.77211726407679 -16.99071473040609 C-36.540518996074965 -17.11153939847687, -36.30892072807314 -17.232364066547653, -35.66385791279239 -17.56889292409717 M-35.66385791279239 -17.56889292409717 C-35.349271109942 -17.70815116983309, -35.034684307091624 -17.84740941556901, -34.520831595147804 -18.07487676824742 M-35.66385791279239 -17.56889292409717 C-35.25296947796384 -17.750781045623413, -34.84208104313528 -17.932669167149655, -34.520831595147804 -18.07487676824742 M-34.520831595147804 -18.07487676824742 C-34.0759420212014 -18.23860024397384, -33.631052447254994 -18.402323719700256, -33.34773525146062 -18.506587066708033 M-34.520831595147804 -18.07487676824742 C-34.20946316155676 -18.189463230067172, -33.89809472796572 -18.304049691886924, -33.34773525146062 -18.506587066708033 M-33.34773525146062 -18.506587066708033 C-33.08840223542815 -18.58355574459969, -32.829069219395684 -18.660524422491346, -32.14938938623541 -18.862249829261067 M-33.34773525146062 -18.506587066708033 C-32.99571611074226 -18.611064499887068, -32.64369697002389 -18.715541933066103, -32.14938938623541 -18.862249829261067 M-32.14938938623541 -18.862249829261067 C-31.664093168816688 -18.973015524033116, -31.178796951397963 -19.083781218805164, -30.930718259676766 -19.140403561325773 M-32.14938938623541 -18.862249829261067 C-31.88262512358176 -18.923137031412264, -31.615860860928105 -18.98402423356346, -30.930718259676766 -19.140403561325773 M-30.930718259676766 -19.140403561325773 C-30.437415211631883 -19.220156972511397, -29.944112163586997 -19.29991038369702, -29.696729652847882 -19.3399052695533 M-30.930718259676766 -19.140403561325773 C-30.595474975488845 -19.194603095662778, -30.260231691300927 -19.248802629999783, -29.696729652847882 -19.3399052695533 M-29.696729652847882 -19.3399052695533 C-29.199686968599703 -19.387854379521436, -28.702644284351525 -19.43580348948957, -28.452494289623903 -19.45993515863156 M-29.696729652847882 -19.3399052695533 C-29.323863166398972 -19.375875251063466, -28.950996679950066 -19.411845232573633, -28.452494289623903 -19.45993515863156 M-28.452494289623903 -19.45993515863156 C-28.125054051453183 -19.470435529745934, -27.79761381328246 -19.48093590086031, -27.203125000000007 -19.5 M-28.452494289623903 -19.45993515863156 C-28.161919405840496 -19.46925332958479, -27.87134452205709 -19.478571500538028, -27.203125000000007 -19.5 M-27.203125000000007 -19.5 C-27.203125000000007 -19.5, -27.203125000000004 -19.5, -27.203125 -19.5 M-27.203125000000007 -19.5 C-27.203125000000004 -19.5, -27.203125 -19.5, -27.203125 -19.5" stroke="#9370DB" stroke-width="1.3" fill="none" stroke-dasharray="0 0" style=""/></g><g class="label" style="" transform="translate(-34.328125, -12)"><rect/><foreignObject width="68.65625" height="24"><div xmlns="http://www.w3.org/1999/xhtml" style="display: table-cell; white-space: nowrap; line-height: 1.5; max-width: 200px; text-align: center;"><span class="nodeLabel"><p>API client</p></span></div></foreignObject></g></g><g class="node default" id="my-svg-flowchart-mw-1" data-look="classic" transform="translate(545.53125, 327.15644454956055)"><rect class="basic label-container" style="" x="-118.515625" y="-51" width="237.03125" height="102"/><g class="label" style="" transform="translate(-88.515625, -36)"><rect/><foreignObject width="177.03125" height="72"><div xmlns="http://www.w3.org/1999/xhtml" style="display: table-cell; white-space: nowrap; line-height: 1.5; max-width: 200px; text-align: center;"><span class="nodeLabel"><p>Middleware<br />X-Request-ID, JSON logs,<br />RFC 7807 errors</p></span></div></foreignObject></g></g><g class="node default" id="my-svg-flowchart-routes-2" data-look="classic" transform="translate(790.46875, 327.15644454956055)"><rect class="basic label-container" style="" x="-75.625" y="-27" width="151.25" height="54"/><g class="label" style="" transform="translate(-45.625, -12)"><rect/><foreignObject width="91.25" height="24"><div xmlns="http://www.w3.org/1999/xhtml" style="display: table-cell; white-space: nowrap; line-height: 1.5; max-width: 200px; text-align: center;"><span class="nodeLabel"><p>Routes /v1/*</p></span></div></foreignObject></g></g><g class="node default" id="my-svg-flowchart-limiter-3" data-look="classic" transform="translate(1028.6015625, 217.6732406616211)"><rect class="basic label-container" style="" x="-111.7109375" y="-39" width="223.421875" height="78"/><g class="label" style="" transform="translate(-81.7109375, -24)"><rect/><foreignObject width="163.421875" height="48"><div xmlns="http://www.w3.org/1999/xhtml" style="display: table-cell; white-space: nowrap; line-height: 1.5; max-width: 200px; text-align: center;"><span class="nodeLabel"><p>Rate limiter<br />fixed window, per user</p></span></div></foreignObject></g></g><g class="node default" id="my-svg-flowchart-idem-4" data-look="classic" transform="translate(1028.6015625, 339.6732406616211)"><rect class="basic label-container" style="" x="-96.640625" y="-27" width="193.28125" height="54"/><g class="label" style="" transform="translate(-66.640625, -12)"><rect/><foreignObject width="133.28125" height="24"><div xmlns="http://www.w3.org/1999/xhtml" style="display: table-cell; white-space: nowrap; line-height: 1.5; max-width: 200px; text-align: center;"><span class="nodeLabel"><p>Idempotency layer</p></span></div></foreignObject></g></g><g class="node default" id="my-svg-flowchart-quotes-5" data-look="classic" transform="translate(1028.6015625, 874.6732406616211)"><rect class="basic label-container" style="" x="-79.25" y="-27" width="158.5" height="54"/><g class="label" style="" transform="translate(-49.25, -12)"><rect/><foreignObject width="98.5" height="24"><div xmlns="http://www.w3.org/1999/xhtml" style="display: table-cell; white-space: nowrap; line-height: 1.5; max-width: 200px; text-align: center;"><span class="nodeLabel"><p>Quote service</p></span></div></foreignObject></g></g><g class="node default" id="my-svg-flowchart-saga-6" data-look="classic" transform="translate(1506.3125, 467.15644454956055)"><rect class="basic label-container" style="" x="-86.765625" y="-39" width="173.53125" height="78"/><g class="label" style="" transform="translate(-56.765625, -24)"><rect/><foreignObject width="113.53125" height="48"><div xmlns="http://www.w3.org/1999/xhtml" style="display: table-cell; white-space: nowrap; line-height: 1.5; max-width: 200px; text-align: center;"><span class="nodeLabel"><p>Transfer service<br />(saga)</p></span></div></foreignObject></g></g><g class="node default" id="my-svg-flowchart-engine-7" data-look="classic" transform="translate(1994.484375, 622.1564445495605)"><rect class="basic label-container" style="" x="-95.1875" y="-39" width="190.375" height="78"/><g class="label" style="" transform="translate(-65.1875, -24)"><rect/><foreignObject width="130.375" height="48"><div xmlns="http://www.w3.org/1999/xhtml" style="display: table-cell; white-space: nowrap; line-height: 1.5; max-width: 200px; text-align: center;"><span class="nodeLabel"><p>Rate engine<br />pure integer math</p></span></div></foreignObject></g></g><g class="node default" id="my-svg-flowchart-ledger-8" data-look="classic" transform="translate(1994.484375, 494.15644454956055)"><rect class="basic label-container" style="" x="-75.671875" y="-39" width="151.34375" height="78"/><g class="label" style="" transform="translate(-45.671875, -24)"><rect/><foreignObject width="91.34375" height="48"><div xmlns="http://www.w3.org/1999/xhtml" style="display: table-cell; white-space: nowrap; line-height: 1.5; max-width: 200px; text-align: center;"><span class="nodeLabel"><p>Ledger<br />double entry</p></span></div></foreignObject></g></g><g class="node default" id="my-svg-flowchart-adapters-9" data-look="classic" transform="translate(1994.484375, 774.1564445495605)"><rect class="basic label-container" style="" x="-130" y="-63" width="260" height="126"/><g class="label" style="" transform="translate(-100, -48)"><rect/><foreignObject width="200" height="96"><div xmlns="http://www.w3.org/1999/xhtml" style="display: table; white-space: break-spaces; line-height: 1.5; max-width: 200px; text-align: center; width: 200px;"><span class="nodeLabel"><p>Partner registry<br />retry + backoff, circuit breaker,<br />deadline, HTTP adapter</p></span></div></foreignObject></g></g><g class="node default" id="my-svg-flowchart-recon-10" data-look="classic" transform="translate(1506.3125, 1109.673240661621)"><rect class="basic label-container" style="" x="-108.171875" y="-27" width="216.34375" height="54"/><g class="label" style="" transform="translate(-78.171875, -12)"><rect/><foreignObject width="156.34375" height="24"><div xmlns="http://www.w3.org/1999/xhtml" style="display: table-cell; white-space: nowrap; line-height: 1.5; max-width: 200px; text-align: center;"><span class="nodeLabel"><p>Reconciliation service</p></span></div></foreignObject></g></g><g class="node default" id="my-svg-flowchart-wadapters-11" data-look="classic" transform="translate(1994.484375, 1137.673240661621)"><rect class="basic label-container" style="" x="-86.0625" y="-39" width="172.125" height="78"/><g class="label" style="" transform="translate(-56.0625, -24)"><rect/><foreignObject width="112.125" height="48"><div xmlns="http://www.w3.org/1999/xhtml" style="display: table-cell; white-space: nowrap; line-height: 1.5; max-width: 200px; text-align: center;"><span class="nodeLabel"><p>Partner registry<br />(own breakers)</p></span></div></foreignObject></g></g><g class="node default" id="my-svg-flowchart-pg-12" data-look="classic" transform="translate(2568.5703125, 512.6732406616211)"><path d="M0,12.358574047152521 a61.1015625,12.358574047152521 0,0,0 122.203125,0 a61.1015625,12.358574047152521 0,0,0 -122.203125,0 l0,75.35857404715252 a61.1015625,12.358574047152521 0,0,0 122.203125,0 l0,-75.35857404715252" class="basic label-container outer-path" style="" transform="translate(-61.1015625, -50.03786107072878)"/><g class="label" style="" transform="translate(-53.6015625, -14)"><rect/><foreignObject width="107.203125" height="48"><div xmlns="http://www.w3.org/1999/xhtml" style="display: table-cell; white-space: nowrap; line-height: 1.5; max-width: 200px; text-align: center;"><span class="nodeLabel"><p>PostgreSQL 16<br />source of truth</p></span></div></foreignObject></g></g><g class="node default" id="my-svg-flowchart-redis-13" data-look="classic" transform="translate(1506.3125, 58.33662033081055)"><path d="M0,12.560641870879463 a63.109375,12.560641870879463 0,0,0 126.21875,0 a63.109375,12.560641870879463 0,0,0 -126.21875,0 l0,75.56064187087946 a63.109375,12.560641870879463 0,0,0 126.21875,0 l0,-75.56064187087946" class="basic label-container outer-path" style="" transform="translate(-63.109375, -50.3409628063192)"/><g class="label" style="" transform="translate(-55.609375, -14)"><rect/><foreignObject width="111.21875" height="48"><div xmlns="http://www.w3.org/1999/xhtml" style="display: table-cell; white-space: nowrap; line-height: 1.5; max-width: 200px; text-align: center;"><span class="nodeLabel"><p>Redis 7<br />ephemeral only</p></span></div></foreignObject></g></g><g class="node default" id="my-svg-flowchart-partner-14" data-look="classic" transform="translate(2568.5703125, 993.6732406616211)"><rect class="basic label-container" style="" x="-98.7421875" y="-39" width="197.484375" height="78"/><g class="label" style="" transform="translate(-68.7421875, -24)"><rect/><foreignObject width="137.484375" height="48"><div xmlns="http://www.w3.org/1999/xhtml" style="display: table-cell; white-space: nowrap; line-height: 1.5; max-width: 200px; text-align: center;"><span class="nodeLabel"><p>Partner APIs<br />(partner simulator)</p></span></div></foreignObject></g></g><g class="node default" id="my-svg-flowchart-prom-15" data-look="classic" transform="translate(80.0078125, 1058.673240661621)"><rect class="basic label-container" style="" x="-72.0078125" y="-27" width="144.015625" height="54"/><g class="label" style="" transform="translate(-42.0078125, -12)"><rect/><foreignObject width="84.015625" height="24"><div xmlns="http://www.w3.org/1999/xhtml" style="display: table-cell; white-space: nowrap; line-height: 1.5; max-width: 200px; text-align: center;"><span class="nodeLabel"><p>Prometheus</p></span></div></foreignObject></g></g></g></g></g><defs><filter id="my-svg-drop-shadow" height="130%" width="130%"><feDropShadow dx="4" dy="4" stdDeviation="0" flood-opacity="0.06" flood-color="#000000"/></filter></defs><defs><filter id="my-svg-drop-shadow-small" height="150%" width="150%"><feDropShadow dx="2" dy="2" stdDeviation="0" flood-opacity="0.06" flood-color="#000000"/></filter></defs></svg>